<svg xmlns="http://www.w3.org/2000/svg" width="83.19044" height="41.97819" viewBox="0 0 83.19044 41.97819">
  <g id="Calque_2" data-name="Calque 2">
    <g id="bas">
      <g>
        <path d="M2.56435,5.27734a.31717.31717,0,0,1-.03147-.524c-.60357.00782-.34839-.33681-.84448.20153-.45882.09683-.40956-.49269.0441-.515L.76937,4.25652l.34232.41C.6271,5.058.56476,4.01113,0,4.46794l.78222.53344L.62139,5.1312c.30292-.03908.57712.28919.64008.44545-.07957.06492-.16767.20214-.31.1136.87217.73705.89381-.6486,1.76488-.22671A.30563.30563,0,0,1,2.56435,5.27734Z" style="fill: #1d1d1d"/>
        <path d="M2.41813,7.04406l.78093-.35584.40653.56482c.16723-.20273.68122-.07145.56319-.45613a.44668.44668,0,0,1-.29069-.10572c.407-.402.8746.32166,1.07239-.2523-.50914-.20542-.49673-.35349-1.03621-.18916a1.84817,1.84817,0,0,1-.59917-.96039c-.16622-.02045-.39572.2418-.58237.18443a.98143.98143,0,0,1,.11122.059l-.50832.68565c.23068-.04863.292.10709.43642.19649L1.54319,6.722c-.2914.7853.60279.88631.64115,1.33672C2.325,7.258,2.64267,7.963,2.41813,7.04406Z" style="fill: #1d1d1d"/>
        <path d="M2.73273,5.47377l-.01641-.01023Z" style="fill: #1d1d1d"/>
        <path d="M48.912,24.74579c.12168-.11413.03674-.30321-.00682-.3983l-1.46705,1.16128c.18387.1409.77967.02922.57751.35594.27892.097.53478-.37078.40527-.6529l.1026.35283c.07148-.61032.832-.11193.76872.26449l.02583-.02591-.09182-2.0629C48.81993,23.93189,49.31567,24.40526,48.912,24.74579Z" style="fill: #1d1d1d"/>
        <path d="M79.77007,1.83413c-.14362.21025-.11723.29272-.04468.34119A.99523.99523,0,0,0,79.77007,1.83413Z" style="fill: #1d1d1d"/>
        <path d="M49.20386,23.257l-.02834-.64569A1.81721,1.81721,0,0,0,49.20386,23.257Z" style="fill: #1d1d1d"/>
        <path d="M52.08162,31.17783a.27251.27251,0,0,0,.05944.06817l-.03285-.31585-.00343.00267C52.09248,31.01775,52.08523,31.0989,52.08162,31.17783Z" style="fill: #1d1d1d"/>
        <path d="M54.68921,16.482l.07426-.1045A.33928.33928,0,0,0,54.68921,16.482Z" style="fill: #1d1d1d"/>
        <path d="M48.03446,38.14259l1.04128-1.45218c-.05931.35016.509-.183.37417.27655.07988-.11064.48239-.54427.30018-.55876l-.24633.21069c.3069-1.12441-.19359-1.07571.51457-2.30126-.83023.11956-.88112.64064-1.06691,1.18847a3.56375,3.56375,0,0,1-.25651.32224q-.26091.82224-.58691,1.6951Z" style="fill: #1d1d1d"/>
        <path d="M73.05832,12.08466l.02621.04853A.118.118,0,0,0,73.05832,12.08466Z" style="fill: #1d1d1d"/>
        <path d="M73.19343,12.33252l-.1089-.19933C73.11777,12.24871,73.04876,12.43881,73.19343,12.33252Z" style="fill: #1d1d1d"/>
        <path d="M49.37358,23.699a1.38894,1.38894,0,0,1-.16972-.442l.02238.48336A.79269.79269,0,0,1,49.37358,23.699Z" style="fill: #1d1d1d"/>
        <path d="M49.8102,25.29456l-.49214.50866.019.44509A10.03051,10.03051,0,0,0,49.8102,25.29456Z" style="fill: #1d1d1d"/>
        <path d="M53.563,16.83664c1.08-.97566.22383.86876.87215.616.2587-.32393.13122-.71936.254-.97068-.70371.97036-.66712-1.11208-1.45636-.2357a.84464.84464,0,0,1,.61644-1.213c.7701.26393-.00124.6331.32889,1.22221.2998-.37351.15885-.421.08175-.84228.67449-.32438.68077-1.59023,1.60545-1.11272.32571-.44382.09824-.67952.11817-1.14993-.39968-.61267-.85654.18144-1.36393-.15138.06985.0236.20808.07229.25276.16714l-.45567.15979c.49918-.06593.39972.61238.25139.80007-.12376.116-.36923.34743-.45636.16007l.10553-.281c-.40128.02045-.2469.86595-.76389.76762-.11493-.11814-.05847-.25985-.10477-.3519-.00179.63238-.31671.83954-.55559,1.47185l-.17989-.77587c.127.91478-.83717,1.37667-1.668,1.4877.1387.04744.30585.02665.32284.19a.47558.47558,0,0,1-.866-.21845c.0405.72871-1.55933.573-1.52788,1.53579l.20148,4.49919a.806.806,0,0,1,.12235-.34661c.57612.3555.62971.21666.66974.94358.11528-.51491-.32061-.822.146-1.2183.00685.39954.40622,1.01182.91484.71154.76663-1.4.425-3.42049.93862-4.98828.34.355,1.10369-.4124,1.58636-.64208a1.24642,1.24642,0,0,1-.301,1.22341c.2194-.12882.5709-.38431.83948-.56378Z" style="fill: #1d1d1d"/>
        <path d="M51.88757,20.22221a.4087.4087,0,0,0,.1456.00255A.18019.18019,0,0,0,51.88757,20.22221Z" style="fill: #1d1d1d"/>
        <path d="M53.14634,18.35755a.27687.27687,0,0,0,.02853.045l.07759-.108Z" style="fill: #1d1d1d"/>
        <path d="M50.32223,24.35976c.01748.164-.00949.23413.00824.39846a1.53318,1.53318,0,0,1,.0681-.21435C50.40652,24.45383,50.389,24.38338,50.32223,24.35976Z" style="fill: #1d1d1d"/>
        <path d="M49.56318,23.86086l-.08685-.18733a.81493.81493,0,0,0-.10275.02542C49.432,23.79059,49.49632,23.8556,49.56318,23.86086Z" style="fill: #1d1d1d"/>
        <path d="M60.65683,16.92339l.04449-.16939A.14716.14716,0,0,0,60.65683,16.92339Z" style="fill: #1d1d1d"/>
        <path d="M55.34937,16.4999c-.36935.34728.40035.613-.16116,1.0544l.19294-.09342c-.21295.56084-1.01175,1.00052-1.47662,1.39447-.12442-.27188-.5088-.05277-.72966-.45285a1.32263,1.32263,0,0,0-.41018,1.17105c-.29728.03761-.35454.602-.73152.65121.2769.13063.19872,1.01574.62343.26234-.028.069.0422.09335.01569.16287.63909-.01524.40534-.65143.74939-.93014.37418.05016-.07478.609.18883.541.28224-.53746,1.56857-.80851.91693-1.5868.27358-.30345.45475-.161.66334-.08818-.16119-1.24381,2.1488-1.08378,1.29614-2.17077a1.74037,1.74037,0,0,0-.55427.83768Z" style="fill: #1d1d1d"/>
        <path d="M50.94783,23.7833a.557.557,0,0,1,.086-.04928A.57325.57325,0,0,0,50.94783,23.7833Z" style="fill: #1d1d1d"/>
        <path d="M43.59914,24.42632q-.24376-.38277-.5059-.75126a13.1345,13.1345,0,0,1,2.1033-1.63252c.13918.04822.08663.1884.06016.25966.5189-.53642,1.508-1.0654,1.67776-1.72317.18994-.13872.85338-.291.83207.06207a.50731.50731,0,0,1,.21842-.33277c.22715.23531-.17528.25412-.01789.46882.09562-.04688.16639-.0221.12253-.11759.0329.32823.82.75784.16111,1.24387-.71572-.40427.39408-.41808-.26726-.96369-.21776.16225.006.39865.05037.49339-.28466.19755-.40664.02588-.50948-.13636.05494.28664-.51039.26834-.41291.69191-.49114.46428-.357-.51869-.698-.24146l.32056.82482-.67484.32225c-.65186.88456,1.0186,1.06347.35861,2.1839a1.31168,1.31168,0,0,0-1.53793-.53012c.24661-.23131.39868-1.04922.89615-1.11751-.8911-.14791.61674-.58045-.10081-.98519a.99.99,0,0,1-.81683.90644l.054-.1409c-.3857.18607-.09178,1.08026-.7556,1.16782-.2099.19782-.31459-.02442-.3963-.21171C43.59381,24.4577,43.73178,24.56069,43.59914,24.42632Zm.24715-.41706.35481-.16952C44.04338,23.78555,43.9332,23.87706,43.84629,24.00926Z" style="fill: #1d1d1d"/>
        <path d="M6.72609,10.255l-.04981-.126A.183.183,0,0,0,6.72609,10.255Z" style="fill: #1d1d1d"/>
        <path d="M33.43721,31.43893l-.15856-.15852A.54458.54458,0,0,0,33.43721,31.43893Z" style="fill: #1d1d1d"/>
        <path d="M27.77683,30.584l-.378-.04337A.51452.51452,0,0,0,27.77683,30.584Z" style="fill: #1d1d1d"/>
        <path d="M8.78433,11.92953l.00483.01148a.66961.66961,0,0,1,.06818-.00411Z" style="fill: #1d1d1d"/>
        <path d="M21.089,22.87086a.6694.6694,0,0,0-.02848-.2584A.24836.24836,0,0,0,21.089,22.87086Z" style="fill: #1d1d1d"/>
        <path d="M27.84661,30.59169l-.00575-.02462-.064.017Z" style="fill: #1d1d1d"/>
        <path d="M34.08551,35.07488c.08343.03018.15637.06156.24889.08715A.60281.60281,0,0,0,34.08551,35.07488Z" style="fill: #1d1d1d"/>
        <path d="M35.02923,32.76518a.75218.75218,0,0,0,.21379.0596Z" style="fill: #1d1d1d"/>
        <path d="M44.52813,38.70567l.38381-.45252A1.68215,1.68215,0,0,0,44.52813,38.70567Z" style="fill: #1d1d1d"/>
        <path d="M35.70164,33.99041a.64967.64967,0,0,0,.11569-.056C35.75279,33.9177,35.70278,33.94215,35.70164,33.99041Z" style="fill: #1d1d1d"/>
        <path d="M6.77461,7.09232l.01615.00889.06649-.0732Z" style="fill: #1d1d1d"/>
        <path d="M5.44194,7.61967l-.25075-.1062A.42828.42828,0,0,0,5.44194,7.61967Z" style="fill: #1d1d1d"/>
        <path d="M18.49163,19.1237c.01264-.14548-.04419-.37551.11028-.43261C18.37339,18.7376,18.1181,19.08239,18.49163,19.1237Z" style="fill: #1d1d1d"/>
        <path d="M11.184,3.80075a1.49822,1.49822,0,0,1-.30858.12537C11.03879,3.89661,11.17815,3.87579,11.184,3.80075Z" style="fill: #1d1d1d"/>
        <path d="M10.87538,3.92612c-.0809.01474-.166.02884-.2455.05116A1.27677,1.27677,0,0,0,10.87538,3.92612Z" style="fill: #1d1d1d"/>
        <path d="M24.40251,14.80915a.18453.18453,0,0,0-.002.15186C24.46168,14.86263,24.45071,14.82282,24.40251,14.80915Z" style="fill: #1d1d1d"/>
        <path d="M5.10669,7.27573c-.16106.13027-1.33387-.22542-.63775.447-.41508.47326-.66588-.14945-.964-.18407.05658.23085-.32093.2617-.41445.47413.14759.01761.37771-.032.51634.13247a.32923.32923,0,0,1-.60273.00658c.03854.45067-.61365.1544-.42674.622A3.24381,3.24381,0,0,0,5.185,9.06768c-.51072-.20576-1.09362-.42129-1.28121-.88755l.47831-.31767c.09375.67907.55208.58338.90221.91964L4.6054,7.88831c-.123-.66941.20912-.54286.58579-.37484A.20613.20613,0,0,1,5.10669,7.27573Z" style="fill: #1d1d1d"/>
        <path d="M8.614,3.95631,8.609,3.933a.246.246,0,0,0-.06979.01527Z" style="fill: #1d1d1d"/>
        <path d="M42.73988,26.15042l-.006-.25581A1.14214,1.14214,0,0,0,42.73988,26.15042Z" style="fill: #1d1d1d"/>
        <path d="M7.50706,6.43353,7.50641,6.433C7.51583,6.43286,7.51722,6.43394,7.50706,6.43353Z" style="fill: #1d1d1d"/>
        <path d="M42.04951,26.31221l.00675-.05378Z" style="fill: #1d1d1d"/>
        <path d="M40.37484,39.86942a.4942.4942,0,0,0,.013.10345C40.46252,39.99232,40.43116,39.93576,40.37484,39.86942Z" style="fill: #1d1d1d"/>
        <path d="M42.04555,26.37349l.004-.06128Z" style="fill: #1d1d1d"/>
        <path d="M34.69905,23.19048a1.18131,1.18131,0,0,0-.04037.20118C34.70683,23.36514,34.726,23.30515,34.69905,23.19048Z" style="fill: #1d1d1d"/>
        <path d="M35.96108,25.19195l-.00474.07232Z" style="fill: #1d1d1d"/>
        <path d="M17.403,21.38064a.65359.65359,0,0,0,.22482.13835A.45048.45048,0,0,0,17.403,21.38064Z" style="fill: #1d1d1d"/>
        <path d="M42.05626,26.25843l.0428-.20766C42.07831,26.13357,42.06517,26.19949,42.05626,26.25843Z" style="fill: #1d1d1d"/>
        <polygon points="30.334 23.277 30.425 23.272 30.409 23.226 30.334 23.277" style="fill: #1d1d1d"/>
        <path d="M29.66322,22.24854a.9789.9789,0,0,0,.17486-.09444c-.466-.07572-.91625-.737-1.34252-.33578.11988.075.48663.791.18032.98241.31694.063.40495.64554.58607.666-.18-.541.25926-.41695.63194-.37454.12609.31215-.3291.33389-.197.57243l.57115.36309-.41637-.42059.48245-.32991-.07994.00523C29.31157,22.8773,30.688,22.58739,29.66322,22.24854Z" style="fill: #1d1d1d"/>
        <path d="M29.83808,22.1541a.47377.47377,0,0,0,.20962-.01041A.18091.18091,0,0,0,29.83808,22.1541Z" style="fill: #1d1d1d"/>
        <path d="M27.19941,18.93928a.96053.96053,0,0,0-.19293-.03818C27.04593,18.90429,27.12271,18.93056,27.19941,18.93928Z" style="fill: #1d1d1d"/>
        <path d="M48.88741,26.48142c-.11433-.11871-.77824-.03008-.50733.30143l.49179-.21206Z" style="fill: #1d1d1d"/>
        <path d="M16.94968,14.11885a.64491.64491,0,0,0,.14618.12761l.07048-.0293C17.17391,14.14323,17.02511,14.12683,16.94968,14.11885Z" style="fill: #1d1d1d"/>
        <path d="M28.41128,22.84983a.39374.39374,0,0,0,.2646-.0491A.36152.36152,0,0,0,28.41128,22.84983Z" style="fill: #1d1d1d"/>
        <path d="M17.54541,13.29367a1.20169,1.20169,0,0,1,.11587-.5077c-.13033-.106-.36116-.00128-.5453-.043A.74221.74221,0,0,1,17.54541,13.29367Z" style="fill: #1d1d1d"/>
        <path d="M17.10025,12.74061l.01573.00236Z" style="fill: #1d1d1d"/>
        <path d="M49.27062,26.41346a1.71063,1.71063,0,0,1,.06641-.16515l.00678.13914.39405-.14163a.59978.59978,0,0,1,.08753-.15434.18433.18433,0,0,0,.01988.12009l.13137-.03882a10.4024,10.4024,0,0,1,.42193-1.62888,1.51779,1.51779,0,0,1,.54926-.76057c-.17449.12456-.34425.36944-.12646.51032.49985-.06556,1.1178.38484,1.32263-.57431l-.3417.27752L52,22.639c.51592.09865-.09873.67775.0031,1.03243.31982-.84246,1.59385-.247,1.37-1.11608.33926.35436.90594.94573,1.275.59756-.62928-.21611.01939-.46823-.58223-.75525-.0339-.32783.55278-.20693.35123-.51345l.08694.18879c1.15526.08069.63454-1.0487.6812-1.58968.69281-.79113,1.26109-.83289,1.87553-1.4146.22681.23773.96008.8071,1.20593.573-.14768-.44584.3283-1.07518.04138-1.57083-.6222.18388-.09834.67858-.30219,1.00547-.60255-.28451-.38264-.44755-.92517-.47561.40386-.02119.99335-1.16471,1.62248-.94761l-.05323.14047c.66574-.08879,1.61431.95034,1.856-.313l.15085-.55714a1.17853,1.17853,0,0,0,.07767.15952c.63215-.41674.86525.2188,1.21075-.69443-.02674.07059.04355.09509.01546.16546.57008-.04063.55556-.83957.757-1.16549.463.23836.24456.39924.34754.75253.77173-.36883.9858-1.56243,1.04139-2.33623l.59565-.11155c-.13244.35015-.13456.98329.11774,1.149.17583-.25645-.007-.39818.37975-.58326a4.598,4.598,0,0,1,.24168,1.03426c.99427-.13273-.50555-.9655.54276-.60515.21865-.16231.072-.60832-.12855-.91474l.68286.07475c-.24219-.40073.22188-.79569.49372-1.09616-.08463-.18817-.55815-.1944-.56708.04045a.69013.69013,0,0,1,.24871-.86482c.67768.70849,1.32457-1.20819,1.77525-.103a27.74722,27.74722,0,0,0,2.46141-2.957c.3761.04892.8139-.27419.83739.28709.78183-.60269.5692-1.70539,1.50624-2.09637.13909.04676-.34422.27883-.11694.51431.26539-.70184,1.17355-.389,1.79746-1.20516-.12114.1165-.03578.30563.00785.39964-.11292-.11689.11547-.51468.222-.7964.16563-.0224-.07992.21062.06021.25872,1.8062-.804,2.14627-2.74879,3.68057-3.88561-.43847.32427-.20454.9607-.04667,1.17313l.42873-.31859c-.0355-.38094.28166-.62632.398-1.023.10714.07071.3162.07383.27839.2963C81.23815,2.34016,80.58035.52854,81.80716,0l-.43589,1.98987.58442.12051-.17964.89028c.54414.03.3192-.84173.65885-.48552.01644.16267-.17605.256-.019.46878.42925-.091.22968-.39816.40549-.65547-.00569,1.26628-1.225,2.19522-1.72646,2.89419-.05434.14158-.05989-.258-.10383-.35187-.24561.23243-.59556.11149-.82393.50812.05049.49355.34848.12107.54065.028.20192.3065.10552.35371-.0445.53956-.33951-.35417-1.11395.64738-1.71645.36092-.88663.88409.93281.87581-.15491,1.45314l-.62883-.21823A3.8866,3.8866,0,0,1,76.686,9.57187l.12148-.1174c-.05827-.25707-.29454-.25981-.43439-.30636-.62215.18108-.633,1.04865-1.26428.83131a9.65262,9.65262,0,0,1-1.24344,2.66463c-.61953-.45158.425-1.1223.40059-1.686l-.56273.44079c.34308-.27859.30875-.607.26051-1.1005-.57858.27653-.34527.91217-.69942,1.42422-.08667-.1866-.2249-.23529-.44463-.07151l.23867.43361c-.02843-.02831-.075-.03884-.16095-.01152l-.65108.8842c.30575.02788.57559.35718.7945.194-.2518-.16508-.10389-.35194.1165-.5137.007.39883.37564.049.53307.2609a5.02387,5.02387,0,0,0-1.13272,1.11689l-.36848-.28376c-.482.23041-.76283.7673-1.12279.88116l-.059-.25773c-.57853.2761-.88741.88343-1.596.87808a20.26658,20.26658,0,0,0-.44709,2.22432c.16408.60879-1.74171.43036-1.73677,1.46263-.07172-.02315.07318-.61051.10779-.91612-.386.186-.20531.96106-.68438.55884.86814-.41505-.33942-.35424-.11185-.75139a1.768,1.768,0,0,0-.67565.9559c.55961-.44077.31938.823.72517.16991a2.09425,2.09425,0,0,1-1.24908,1.63113.4482.4482,0,0,0-.56011-.19288l.07693.42511c-.28877.13615.19745-.72754-.38159-.45041-.10739.91326-1.76225.9-1.24177,2.02955-.68194-.07558.44143-.95718-.50338-.96439.07189-.61013.84909-.57988.59-1.14454-.22785.3956-.43555-.30886-.65448-.14608l-.14324.58377.09648-.04576c-.27411.93626-1.43175,1.48955-2.16962,2.1865-.30164,1.00619-.22667,2.06229-1.07758,2.64016.01994-.468-.88413.25179-.776-.66176a.60446.60446,0,0,0-.55479.83935c.38555-.18506.1682-.02312.52549-.137a.75033.75033,0,0,1-.73806.69672c.09655-.04569.02752-.06992-.01581-.163-.52591.13651.00663.39807-.196.72488-.36532-.28342-.70213.39414-1.10438.41319l.01537.79766c-.05075-.49271-.45545.15973-.75207-.0992-.08869.44381.00388,1.03056-.477,1.2616.03543-.30523-.56994.04216-.83851-.28837-.95534.22609-.45393,1.82515-1.496,1.86268-.04059-.095-.07776-.42079-.33871-.35365-.08048.21359-.38048.38317-.51643.54768l-.00222-.01348-.00121.01615a.18239.18239,0,0,0-.02316.245,3.5069,3.5069,0,0,1-.24538,1.70782c.34024.3536.69147-.15985.79776-.441l-.12066-.51638c.6191.451.42131-.489.70081-.39248.19748.93967-.88979,1.5164-1.138,2.38185a2.342,2.342,0,0,0,2.20767-.82578l-.4722-.00332.34183-.27787-.655-.14787c.385-.1844.58813-.51058.90385-.71873-.34256.27843-.89155-.14732-.62887-.21643.68207.07574.21269-.56153.52759-.769-.19264.09331-.41251.254-.44541-.07419.94481.00721.86892-.41656,1.78549-.33633-.5658-.59142.61472-.58168.28546-1.16969l-.2888.13832.22213-.79537c.89031.14739-.01325.86615,1.01.6641.72884-.46342.18683-1.12415.68169-1.58905a1.50843,1.50843,0,0,1-.48838,1.49662l.40337-.01929c.03343.32756-.598.74466-.91292.95306.15133-.81886-.33414.04461-.82337-.12333.2455.40043.51589.09743.37317.6822a2.29722,2.29722,0,0,1,.922-.55524c-1.08916.57884.131,1.94833-.94694,2.28989.2566-.46647-.54746-.4263-.73271-.56865a4.22894,4.22894,0,0,0-.52729.76944l.55069.42507c-.30933.60894-1.35422-.38506-1.49082.60083.17443.37526.579-.27713.52543-.13713-.51022.9334-1.45386.29251-2.44913.42411a1.901,1.901,0,0,1,.3352.98789c-.17339-.378-.47729-.40348-.39-.84658a.47239.47239,0,0,0-.34921.29532l-.44452.68134c1.03984-.50868-.027.75676-.08232,1.10685-.521.318-.06691-.45912.15061-.77676-.44794.21129-1.188.03194-1.09082.72366-.21631-.37119.44277-1.7639.97821-2.31953l-.46242.27246a.81127.81127,0,0,1,.56571-.55344,1.01647,1.01647,0,0,1-.7731-.66254c.06976.02467.04438.0933.112.118.26417-.06838.34436-.27832.15955-.42127-.1822-.58267-.4737-.08476-.82291-.17409l-.39266.45042a25.40612,25.40612,0,0,1-.7531,2.91264c-.68357.80193-1.21714.66012-1.86234.81058l.003.62c-.693.47521-1.34419.78437-1.08637-.20395.065.15735.13927.04979.28431-.03272a.60135.60135,0,0,1,.04753-.23054l.007-.11376c-.62757.68884-1.03927,1.13948-1.07411,1.19039.9859-1.66942-.1438-1.01789-.1328-2.1297l-.98777,1.1278c.68173-.18027.07673.47948-.15122.80636-.11674-.52956-.87252.68411-1.26892.90523l.02626-.14761a.81863.81863,0,0,0-.243.09207,3.61359,3.61359,0,0,0-1.16384-.7945c.01323.21842-.65.71669-1.039,1.02546.81533.86689.29583.71118.32119,1.116-.08753-.1033-.24952-.23649-.2779-.17964-.14738.062.14513.348.1499.55755.77739.376,1.54744.876,2.00962.77855a3.31405,3.31405,0,0,0,.30513-.69042c-.11305-.06948-.20817.034-.30513.18413-.14318-.0001-.29289.09489-.47532-.20387a.58266.58266,0,0,1,.47532-.0028,7.16882,7.16882,0,0,1,1.266-1.06329l.284.299.72171-.843c-.28.49241-.02169.83485-.83584,1.57225.14788.37461.80866-.74024,1.32733-.979l.14778-.80495c-.0439.41836,1.0503-.35809.37439.69176l-1.20993,1.505.42148.14335-1.12205,1.00548L43.871,41.296c-1.45185,1.51884-.9226-.05253-1.61456.48727a2.26435,2.26435,0,0,0-.70368-.33693c-.58145.38352-1.241-.03968-2.32812-1.089.83009.45907.16609-.45913.52819-.66082-.7243-.91253-1.09479-.51215-1.58765-.56948-.11377-.52983-.1699-.9344.50891-.34214.26829-.71549-.94569-.57532-.78744-1.40387a2.96114,2.96114,0,0,0-2.526-.56583c-.73122.04743-1.56561-.13756-2.72369-1.63261l.28826-.159c-.29574-.17029-.36281-.17737-.50006-.25034a3.73422,3.73422,0,0,1-.33921-.19312,5.708,5.708,0,0,1-.56626-.42309,5.50636,5.50636,0,0,0-1.19056-.831l-.20892-1.13855c.2252.02514.98853-.11027,1.02508-.5522-.14636.87275.37261.93177.47345,1.53972.16079-.13161.10523-.3604.11849-.50819.21127.17329.105.5333.473.648.08466-.13734-.10724-.53183.18527-.42458l.093.68a.90133.90133,0,0,0,.78637-.18945.58014.58014,0,0,1,.31629-.10327.32372.32372,0,0,1,.16069.05822.54934.54934,0,0,1,.0837.07057l.15325.15509c-.10955.05035-.24943.09226-.38384.13953a3.46694,3.46694,0,0,1-.35444.16916.98862.98862,0,0,1-.61419.09622c.22147.28941-.52968-.08432-.43279.31508a.74429.74429,0,0,1,.73105.121c.05164.038.24424.19507.43061.31634a3.288,3.288,0,0,0,.72028.3561c-.16226-.01394-.26169.06581-.52615-.09006l1.29786,1.34767c-.17027-.60163,1.37179.551,1.45843-.0794-1.33732-1.32883-1.08744-.7133-2.55332-2.24915a2.49573,2.49573,0,0,0,1.93931-.01353.17222.17222,0,0,0,.05588.10591c.49448-.306.33452-.616.8176-1.44742a1.21783,1.21783,0,0,1-1.01687-.331,1.72774,1.72774,0,0,0-.89406-.509c-.404.34674-.172.70906.365.9563a4.01511,4.01511,0,0,0-.80383-.18718l.235-.12127-1.02321-1.0178c.23131.14467.48976-.03754.74165-.13061a1.267,1.267,0,0,1-.25409-.58967c-.27365.41843-.50964.67993-.64612.56176a2.24841,2.24841,0,0,1-.704-1.98479l-.10636-.03812c-.19141.49785-1.08.32262-1.62561.559.33511-.408-.18066-.54155-.2247-.91759a2.80384,2.80384,0,0,0-.89617,1.75622c.83153-.05413.61825-.22619,1.33316-.66581l1.11071.20035-.47289.244c.263.4746,1.033.2652.61815.739-.46528.16882-.65295-.299-1.11739-.12789l.11941.38409c-.83888.13013.12956-.65285-.69148-.7455-.12306.58065-.074-.009-.5324.08851-.037.44257,1.07362.64161.349,1.22834-.533.08806-.32064-1.59723-1.25766-1.18251l.08188-.06655c-.49285-.532-1.0096-.27728-1.42144-.18408-.06-.41893-.64588-.3504-.92661-.527l.16867-.20376-.43565-.19832c.47076-.24411.423.345.78174.53524l.262-.4179c.00639.74289.79251.23311,1.3345.11863-.67163.01582-1.08623-.99726-1.77176-.31489l.05019-.589-.23158.04691a.74349.74349,0,0,1,1.0257-.553c-.01223.14731-.01806.22068-.10021.28639.30484-.04036.69519-.21932,1.03835.19044l-.37965.03412a1.43026,1.43026,0,0,0,1.54712.39634,11.45538,11.45538,0,0,0-2.02788-1.86282,25.91628,25.91628,0,0,0-2.24914,1.7498c-.58372-.21314-1.30492-.59423-1.4788-1.20767l.16142-.13074a.71473.71473,0,0,0-.57331-.36149c-.04317-.376.47751-.31867.4217-.54765l-.88116-.24733c.32761-.33619.89193.09987,1.1795.28171-.07458-.00821-.2241-.02606-.22962.04844.193.39358,1.25995.21685.98146.85549.22361.02517-.6132.15348-.12214.58046.18742.46765.67111.0765.83121-.05539.16806-.20449-.31655-.70513.06778-.80947-.28781-.18152-.60326.00439-.78876-.46252.28459.18078.97365.03725.86267.4711.82632.01845,1.51243-1.01881,1.30768-1.26519-.18.35271-1.24979-.36488-.87406.56946-.6155.15474-1.18118-.28125-1.77648-.34858l.07961-.06465-.57777-.29122c.15559-.05432.37942-.02961.546-.2335l-1.12885.01927c.6829-.07192-.0394-.44907-.08831-.75314-.3225.26138-.77549.28433-.65729.66913.11235.45905.30437-.04009.58952.142l-.768.21055.00612-.07442-.54711.23579c-.49014-.42816.96832-.78282-.002-.89131l-.35093.62766c-.6966-.67437-1.18278-2.06564-1.92146-2.22509a1.63338,1.63338,0,0,0,.89374-1.129,2.98268,2.98268,0,0,0,1.01155.82505c-.0128.14839-.9314.34041-1.1985-.0615-.53958,1.05506,1.34021.15155.65833,1.116.66736,1.041,1.38431-.36343,1.74016.79107.33454-.40795.38022-.03064.7065-.36546.2966-.85853-1.06235-.789-1.38456-1.42067a.454.454,0,0,0,.3021-.03971.939.939,0,0,0-.86259-.47l-.00614.07377c-.75819.06226-.03224-.52331-.15011-.90888-.149-.01658-.4175-.41829-.59667-.06775l-.16407-.76188-.33863.48229c-.287-.17965-.10665-.53176-.56761-.43622l-.33434.40684.54809.65793c-.44044-.12426-.403.32582-.83842.12667.76439-.13509-.11133-.45648.14824-.87383l-.45264.02385.15547-.0572c-.04593-.379-.373-.04181-.57853-.2889.112.45894.076.90016.67813.89424a3.71722,3.71722,0,0,1-1.33454-.22506c-.42011-.04714-.3723-.5187-.60236-.77248.64077.23077.80153-1.4,1.59325-.30457-.08083.06485-.14984-.01759-.14387-.09148-.27669.6375.63959.44456,1.01973.41386.18067-.35025.47193-.24561.20954-.72064-.02308.29622-.86175.42372-1.04138-.11831l.575-.60318-.48536-.50121.075.0089c.12276-.58126-.645-.37139-.82776-.91127-.4528.02271-1.34859-.97175-1.43345.06083-.01863-.67171-.72029-.37989-1.15623-.57817l.25059.62381c-.90633.047-.51479-.13431-1.528.27337.09539-.21313.1129-.43513.34772-.55529-.70156-.60043-1.59737-1.59453-2.4412-1.391-.49147-.4273.02755-1.26083-.92779-1.51859-.22353-.02562-.35766.70388-.6882.14495.00567-.0735.83635-.128.26528-.48955-.77.20968-.672-.96888-1.50359-.91481-.11853-.38354-.62276-.6652-.21879-.9909.34083.41073.9876.7807,1.22495.65846-.24369.1961.1116.46037-.33546.40964.38735.78527.59561.06694.9935.70674.1627-.12987.056-.66386-.17446-.6144.42048-.54608,1.30474.59244,1.31613-.44558-.55961-.5107-1.619.48624-1.69028-.48841.46479-.17022.57063.36206,1.2783-.00489l-.25446-.54892-.61412.15366.08074-.06592c-.36252-1.08139-1.12955.021-2.01245-.2283.095.68-.82368.87365-.71139,1.33278-.50251-.27982-.77588-.60832-.35541-1.15505,1.18461.20893.49543-.53884,1.69342-.47786.02426-.294.80431-.653.38863-1.07276-.82323-.01669-.19663.57448-.85628.35031A.2695.2695,0,0,1,9.6334,11.653c-.459.09706-.19966-.31882-.732-.23112l.15342-.05575c-.0996-.60787-.68116.07086-.70853-.52745-.19114.4992-.46354.17081-.85.27478.19231.39482-.09009,1.10553.549,1.55082.32264-.26189.41582-.47421.788-.43254l-.42924-.2716a2.90425,2.90425,0,0,0,.38505-.01916l.25473.46349c-.66357-.14956-.70651.36545-1.1712.53689-.33626-.48535-.4354-.19748-.634-.51923.39243-.44666-.23512-1.46726-.51265-2.16713.06528.08016.17724.148.22335.20308.60238-.007.048-.58988.13456-.72953l-.45334.02356c.07608.00747.23159-.04692.16754-.20314-.43478-.19826-.77493.28311-1.20949.0859.173-.27921.7878-.43055.66516-.74293.09653-.28622.31219-1.07976-.35177-1.23051a.53749.53749,0,0,1-.46016-.04179.20245.20245,0,0,0,.088.00041l-.10466-.53262c.6181-.22633.3959.64066,1.01661.41384l.34888-.40009a1.12343,1.12343,0,0,0,.95322.10042c-.273-.32672-.42785-.27053-.86278-.46928A.6949.6949,0,0,1,7.50641,6.433l-.24018.1958c.16851.68741.96711.10817,1.452.60994.06906.0812-.00524.073-.08541.13829.75683-.06218.75782.83053,1.60311.62914L9.92444,8.118c.43071.04916,1.32245.08138,2.203.12717l.13154-.15954c.01274-.1473.22271.025.2861.18068l-.00235.00185c.4409.02377.85852.05439,1.19024.09219a.61937.61937,0,0,0-.1078-.41789c-.2383.12176-.64111-.443-.90649.04689-.03873-.45044-.72165-.37815-.77164-.68116.10711.53149-.54464.2343-.78778.42969.10427-.359-.49679-.3529-.16759-.68861.01064-.14576-.03115.36861.27873.25489.60694-.07956-.38686-.78591.29047-.78361-.73964-.15957-1.36129-.82366-2.18072-.91568l.1935.39244c-.20475-.24588-.85263-.618-.75781-.83a8.015,8.015,0,0,0,.71982.37915c.33493-.40726-.56566-.43585-.392-.713l-1.21716.15911.28032.25537C7.82232,5.35437,7.43563,4.564,7.0186,4.146c.70865-.36365.70923.52773,1.37349.67757.52147.05882.20951-.71977.6501-.596A.32774.32774,0,0,0,8.609,3.933l-.05146-.2061c.70113-.28576,1.28014.3501,2.0723.2504a.62028.62028,0,0,0-.22115.108,1.4011,1.4011,0,0,0,.98218.85287c-.04951-.30111-.206-.2443-.35366-.263.08676-.1375.44536.05257.67517.0034-.19354-.39273.1796-.35058.04938-.58918.29852.03415.43437.19795.6389.44429-.0243.29526-.31554.18722-.48832.4633.37376.04389.01277.74784.61509.74094-.41087-.49269.56452-.457.86883-.4965l-.069-.08243q.58614-.268.42805.272c-.29834-.0344-.42805-.272-.60811.07852a1.12819,1.12819,0,0,0,.51051.20737l-.30938.1136.71457.453a9.38459,9.38459,0,0,0,1.18843-.75822c-.0306.36841.34963.33777.57373.36181l-.15743.0572c.114.45858.91612.77338,1.15685.57739.04388.3759-2.66234.36763-1.00954,1.29814.56474.43552.94318-.48934,1.46928-.50268a.2458.2458,0,0,0-.0854.13829c.20318.24706.453-.02316.7511.0114-.05789-.23036-.268-.402-.42267-.34543.322-.26088.4913.42718.87547.32271-.62705.30069.33038.55779-.056.6622.24429.69695,1.07049.71557,1.60931.55377-.14685.87491.6469.37132.96453,1.07642-.06872-.08283-.29114-.10733-.3556-.26387-.61169.15187.39964.6399-.35148.62887a.11088.11088,0,1,0,.01678-.22106.46353.46353,0,0,0-.61315.15493l.17087.68774-.2271-.02472.29525.99754a.43211.43211,0,0,0,.09862-.28485c.61024.81255,1.70256,1.23434,2.33113,1.82552.98528-1.00412,2.03685.82571,3.11172.57444a2.36039,2.36039,0,0,0-.99513.99824c-.15838-.04856-.75522.20266-.96-.10569.0935-.21155-.0929-.67816.285-.70956-.8639-.46952-.27258.56431-.81781.799.93206.55256,1.93214.29367,2.66966.45057l-.08762.14063.596.06827c-.27354-.33029.229-.94279.485-.393l-.0757-.00946c.03868.45167.78425.536,1.13227.87166l.53851-.1614c.34811.33685-.15909,1.02274-.34886,1.52185.55895.5107,1.33225.22633,2.01038.22759-.037.44256.80141,1.206.0516,1.19443.7387.15909,1.85358-1.49825,2.09757.09l-.45968.09743c.92729.62625,2.62236,1.04009,2.79653,1.654-1.11618.76437.29567,1.89134-.32343,3.01074.13361-.26195.52376-.08041.66673-.16469-.01851.17359.01409.38086.3022.27491-.1878-.46767,1.047-.84779.07691-.95615a2.07862,2.07862,0,0,1,2.4101-.02593l-.33473.40768-.4778-.57477c-.18072.3525-.45936.09869-.69094.1456.89009,1.06768-.898.86505.24025,1.663.3156-.1873.16052-.12941.52845-.01467-.14479-.09031-.39178.17759-.18008.35084l.46538-.17065c-.15655.991-.98465-.04113-1.03734.7004-.67733-.00229-1.54608-.39768-1.82265.23967.54134.73,1.39525-.51112,1.93036.29191l-.09891.28588c.37394.04366.69992-.29076,1.01081-.40343a.34887.34887,0,0,0,.03669.44885,20.04552,20.04552,0,0,0,2.06121-.36008c-1.39438-.3813-.58461-1.10716-1.97567-1.56265.30461-.03991,1.16888.42864,1.66282-.10946l-.33432.409a1.71936,1.71936,0,0,1,1.37959.60149l-.45342.0235a.69773.69773,0,0,1,.43522.28334,1.51735,1.51735,0,0,1,.12954.21376.68293.68293,0,0,1,.02694.15678c.02461.19183.106.34692.43732.04832a.1531.1531,0,0,0-.205-.097c.26685-.09031.38937.07173.49719.26908a4.22125,4.22125,0,0,0,.60845-.63058c-.09928.25432.06064.39882-.15554.75985.094.58182.41291-.166.52619-.24333.07851.77021-.20733.15484-.43076.90369.27189.5213.7076.58019.88136.11446a1.17048,1.17048,0,0,1-.063-.46155.30576.30576,0,0,0,.17141.296l.0395-.375L42.259,26.264a1.35571,1.35571,0,0,1,.00155.87567c.12214-.01088.19581-.90324.3398-.38891a.68778.68778,0,0,1-.34384.5309c-.07069-.06108-.12975-.09816-.17385-.00625a.16049.16049,0,0,1,.17385.08258c.22912-.03084.415.95915.87946.14068.04291.17412-.00831.61756.12089.52291.26634-.367-.08331-.83-.0886-1.30824-.13169.37211-.27472.21859-.42732-.2105l-.001-.3524c.028.16129.12458.09668.18151.22875l-.08939-.64838c.1033.71421.39368,1.09429.47575.73328-.259-.37471-.21186-.38174-.42121-1.12393-.06836-.80472.35755.5641.28068-.28416.06741.2031-.03229.47115.15008.52479.12128-.05972-.07845-.52349-.08328-.71734A15.46518,15.46518,0,0,1,43.66154,26.47c-.23545.26659-.09822.06776-.29168.507a3.61166,3.61166,0,0,0,.36458.27627c-.224.28184-.01737.7713.01776.99722.68712.13958.11243-1.0929.437-1.17152-.01555-.44217-.28557.12657-.2313-.39106.26957-.11285-.07827-.37149.0567-.76377l.07186.24815c.22452.21874.12149-.18569.17506-.29424-.01292-.19061-1.00362-1.521-.8258-1.7039l.1634.25208a18.88838,18.88838,0,0,1,1.9351,4.05687q.25437-.203.54063-.39834l.66872-.43019a15.075,15.075,0,0,1,1.63692-.87126c.75639.49919-.2608,1.09947.03619,1.35837l-.55207.207c-.19861-.30679.86183-.81287.06574-1.00844-.62941.82074-1.23568.76244-1.49089,1.91127.70263.54329.86843-.86918,1.74913-.71166a.92853.92853,0,0,0-.44236.54873l1.68042-.849-.01156-.25463a5.21728,5.21728,0,0,1-.74439.32415,1.03314,1.03314,0,0,0,.25049-1.49974l-.09619.0458.04685-.28447ZM79.3289,3.2265a.76481.76481,0,0,0,.06747.22408C79.357,3.36513,79.30188,3.33328,79.3289,3.2265Zm-38.799,29.97241L42.25646,34.909l.39323-.24333a3.48841,3.48841,0,0,1-.39323-.188c-.92447-1.95338-1.12355-3.01519,0-2.23551l.27242-.21934.104-.195a.65211.65211,0,0,0-.37638.13159,2.10138,2.10138,0,0,0-.54774-.36721,9.22647,9.22647,0,0,1-.89211.84368,5.30551,5.30551,0,0,0-.77976.6483c.05144.48072.32246.21023.53251.5085ZM40.51822,30.551c-.27685-.39062-.27762-.042-.39677.17891l.368.16752A.4964.4964,0,0,1,40.51822,30.551Zm-.44495.456a.2296.2296,0,0,1,.07467.122Zm6.79209-1.48749-.028.041.28893-.15109A.40033.40033,0,0,0,46.86536,29.51948Zm-1.00293.00962.13083.47414.25957-.136A.82875.82875,0,0,0,45.86243,29.5291Zm-2.42307-.00749c-.00339.69318-.40146,1.03379-.36152,1.8003-.01038.21254.08929.21319.20288.19072l.389-.2363a1.07474,1.07474,0,0,1,.02649-.3487c-.14546.01317-.253-.10081-.26929-.57777.47341.69924.15625-.88108.50178-.87705C43.90381,28.93025,43.4957,29.25256,43.43936,29.52161ZM13.76713,10.36249c.02252-.052.07068-.19332.12437-.3739l.46832-.02952c.411.49282.25256,1.51477,1.17521,1.2476a2.1919,2.1919,0,0,1-.1555,1.08064,1.31577,1.31577,0,0,1-.20926-.30259C13.2223,11.91208,15.25626,10.5303,13.76713,10.36249Zm5.01021,5.30043a.25251.25251,0,0,0-.15625.05787,5.08756,5.08756,0,0,1,3.49942.89153,2.48923,2.48923,0,0,0-.2896-1.49392l.54525-.23661-.11131.43308.68192-.07065c.10611-.36188-.25419-.5496-.29977-.9262-.07921.064-1.1284.01937-1.51411.1258l.31813.70446c-.056-.22853-.84576-.69016-1.21161-.80554-.16626.20234.07549.90087.48562.50053-.17991.35148-.74625-.084-.645.52172-.67651-.00216-1.13679-.79778-1.33076-1.192l.34731-.5556c-.18653-.46645-.7135.44032-.88875-.17355.578.28837.3543-.63.78215-.35945.02416-.29323.42079-.54648-.008-.81748-.86132.42316-.08776-.75384-.86889-.39639-.04389-.3759.54422-.23461.203-.64654-.75128-.00964-.92356.26835-1.33852.74145.33408.48276.99823-.25855,1.266.14329l-1.37972.29c.03922.22318.12752.312.23634.34189a.95515.95515,0,0,0-.64341.05906c-.13554.05079-.2555.09115-.36215.123.40436.32129.75691.61485.65665.87587l-.24331.19678c-.02741.33313.34244.343.58783.25116.38522.25777,1.01065.206.848.57964l-.30971.11233A6.221,6.221,0,0,1,18.77734,15.66292Zm14.28526,11.988c.41376-1.09312.71992-2.10548-.66913-2.93793l.14725.01672c-.20907-1.05074-1.81581-.238-2.116-1.45747a3.22253,3.22253,0,0,0,1.59983-.45995l-.59868-.066c.48545-.39256-.11163-.45862-.39115-.71248l.70624-.3668c.05083.30277.46712.72178.55462.58131-.15024-.01575.05045,1.19506.566,1.33.26084-.41763-.6775-.89589.1786-1.24445-.52749.0153-.26726-.40154-.70869-.52707.52806-.01435.48976-.46534.94854-.56043l-.65281-.297c.08576-.13993,1.02453.33779.943-.4886-.37822.03093-.76962-.68174-1.104-.27346l.086-.13849c-.34265-.41127-.63991.44814-.96221-.18355-.16889.20486-.18474.42474.03024.523.22587.02631.47211-.2418.83356-.0542-.11143.43578-.34969-.33718-.55871.38449-.10414.35884,1.01878.41224.30632.85122l-.34232-.41c-.33493.40879-.61494.153-.86805.49585-.37143-.04233-.24388-.69714-.78318-.53457-.31658.18654-.51953.83249-.77571.28325.147-.87543-.92672-1.51776-1.36253-1.71505l-.52818.016c-.17155.277.64094.44284.17641.6144l-.57924-.28932.16338-.13023c-.13851-.1646-.44216-.12458-.66465-.151.3895-.17887.65678.22282.92284-.2674-.16869-.26851-.07954-.4571-.36071-.54236a.18526.18526,0,0,0,.18645-.07061c-.33039-.55793-.83759.128-1.067.17659-.91808.19255.07494.89956-.334,1.29905l-1.5836-.84832c.229-.04808.45822-.09489.55177-.30818-.18679-.46728.25437-.34311-.24348-.69632-.42717.62005-.89377-.10157-1.50044-.02319.03007-.36654.03535-.44072.38828-.17765.2598-.41629-.32176-.631-.46021-.7952-.17069.02118-.378-.05037-.54861-.04533-.01041.3005-.25713.49525-.68632.4256l-.08036.06711c.41171.48942.85163,1.5075,1.46811,1.35352l-.23591.12273c.31224.77791,1.782.275,1.4793,1.20805-.24834.26913.06311.15574-.27043.56409l.67379.00194-.23424.1206.78911.46242-.08.06372,1.5478-.29885c.142-.18093.16335-.254.38057-.29931a.36876.36876,0,0,1,.33936.13546l.00217-.00161-.00159.00205c.13437.18963.04848.54151.18232.81573l-.70053-.47271a.98334.98334,0,0,0-.32775,1.09945c-.14257-.092-.38538.10517-.24794.26894.0805-.06611.58934.14224.62114-.22738.71964.37938,1.11366,1.985,2.52943,2.14557-.964-.18365.23145.843-.63259.374.15067.90917.83747-.12781,1.32231.37289-.0913.21326-.27852-.254-.67558-.00169.7519.90232,2.14789.39178,2.90777,1.223l-.26149.41358Zm2.10639.86838.6167.26678-.04161-.05062.74753.08438c-.19446-.39255-.07076-.97485.51816-.83293-.16029.13048-.18474.42475-.40845.39987.111.45711.58177,1.182.86246.46689-.98458.116.44579-.84094-.31126-.77551.52039-.20311.6574.17718.96238.14277a.81408.81408,0,0,0-.25456,1.19691c.21124.01428.561.42981.89389.44242.11983-.47737.42558-.56593.12182-.94593.18922-.00284.41822.057.54964.45214-.12019.00432-.30389-.06772-.36377.09169-.02475.5056.1766.639.21406.89209l.27748.12446a.70078.70078,0,0,1-.00674-.201q.20607-.09152.39813-.19393c-.41716-.056-.08689-.33108.00389-.59478-.18545.5235.19225.2364.30318.30037q-.04-.38369-.06064-.75225c.18869-.20708.26516.71584.36391.09374a1.55608,1.55608,0,0,0-1.07084-.78209l-.01011.53952c-.64714-.11511.02363-.92172-.483-1.28913-.22432.07574-.39355-.04715-.64684-.17263a.54311.54311,0,0,0-.77027.10809c.23556-.12262-.00149-.89274-.46009-.79535-.70762.36572-1.56514-.17739-1.52631.27123.21006.17451.74422.08611.62822.59281l-.51049-.20622.03228.52461C35.68289,27.69568,35.46,28.01066,35.169,28.51925ZM46.82206,36.104l.03014-.01014-.03038.02045Z" style="fill: #1d1d1d"/>
        <path d="M6.57174,6.84638c-.23069.04863-.50972-.20586-.68939.1453C6.13718,6.64918,6.45342,7.35319,6.57174,6.84638Z" style="fill: #1d1d1d"/>
        <path d="M6.47244,6.24065c-.08359.06434-.16911.20432-.31159.11239l.43371.2Z" style="fill: #1d1d1d"/>
        <path d="M7.88758,3.65214c-.38462.10386-.61465.152-.89417-.10189.52641-.90721.665.14912,1.39485-.51142-.48478-.50077-1.20949.08589-1.71166-.193C6.6325,3.36079,7.38628,4.26305,7.88758,3.65214Z" style="fill: #1d1d1d"/>
        <polygon points="8.936 2.804 8.489 2.753 8.481 2.825 8.928 2.875 8.936 2.804" style="fill: #1d1d1d"/>
        <path d="M9.95431,15.035c-.17236.27792.21273.17227.3621.18912C10.247,15.14355,10.18422,14.98654,9.95431,15.035Z" style="fill: #1d1d1d"/>
        <path d="M76.64915,13.83794l2.11837-2.04518C78.15322,12.375,77.56427,12.88469,76.64915,13.83794Z" style="fill: #1d1d1d"/>
        <path d="M18.92672,19.32309c-.80862-.2407-1.42831-.01283-2.148-.39213.42963,1.16323,1.72556.04726,2.0121,1.11936Z" style="fill: #1d1d1d"/>
        <path d="M17.11686,21.19865c.273-.56313.91891-.19344,1.1041-.61758-.5098-.20745-.55232.30838-.89968-.02825Z" style="fill: #1d1d1d"/>
        <polygon points="20.513 11.028 20.897 10.923 20.674 10.897 20.513 11.028" style="fill: #1d1d1d"/>
        <polygon points="20.279 22.969 20.125 23.025 20.317 23.42 20.279 22.969" style="fill: #1d1d1d"/>
        <path d="M19.96992,23.08308l.15508-.05789Z" style="fill: #1d1d1d"/>
        <polygon points="21.561 10.18 21.362 9.859 21.051 9.974 21.561 10.18" style="fill: #1d1d1d"/>
        <path d="M22.01432,14.691l-.37024-.04015C21.71711,14.65936,21.90468,15.12447,22.01432,14.691Z" style="fill: #1d1d1d"/>
        <polygon points="22.019 24.652 22.468 24.703 22.474 24.632 22.026 24.581 22.019 24.652" style="fill: #1d1d1d"/>
        <path d="M25.008,14.88239c.116-.50583.5772.28775.47688-.317C25.124,14.37656,25.10167,14.67032,25.008,14.88239Z" style="fill: #1d1d1d"/>
        <path d="M26.72287,20.25632a.21861.21861,0,0,0,.1684.04342A.87683.87683,0,0,0,26.72287,20.25632Z" style="fill: #1d1d1d"/>
        <path d="M26.72287,20.25632c-.13252-.10306-.15467-.34819-.329-.3115C26.42839,20.24139,26.53774,20.225,26.72287,20.25632Z" style="fill: #1d1d1d"/>
        <path d="M28.30889,21.35088l-.09968-.11983c.26534-.0878.18613-.10607-.03814-.044-.13713-.0865-.22135.03663-.29891.105l-.19058.08349.20892-.05315C28.08532,21.47915,28.22,21.55449,28.30889,21.35088Z" style="fill: #1d1d1d"/>
        <path d="M29.08526,31.99478c-.33643-.48344-.39923-.63959-.15108-.909-.35005-.41943-.67042.12749-1.01434.04523C28.43982,31.44635,28.43418,31.65479,29.08526,31.99478Z" style="fill: #1d1d1d"/>
        <path d="M27.91984,31.131l-.18439-.10627A.38686.38686,0,0,0,27.91984,31.131Z" style="fill: #1d1d1d"/>
        <polygon points="28.984 16.82 29.603 16.593 29.454 16.576 28.984 16.82" style="fill: #1d1d1d"/>
        <path d="M29.63112,32.65238c-.06806-.08232-.20995-.17214-.19785-.32146C29.18447,32.602,29.69945,32.734,29.63112,32.65238Z" style="fill: #1d1d1d"/>
        <path d="M32.31351,25.67016c.09238-.2118-.27394-.32692-.33682-.48464C32.11361,25.35166,31.83561,25.98814,32.31351,25.67016Z" style="fill: #1d1d1d"/>
        <path d="M31.82937,32.45373a.49912.49912,0,0,1,.19665-.5708C31.79639,31.93137,31.23922,32.31389,31.82937,32.45373Z" style="fill: #1d1d1d"/>
        <polygon points="33.085 26.353 33.097 26.206 32.65 26.154 33.085 26.353" style="fill: #1d1d1d"/>
        <path d="M35.31091,21.25394c-.6091.07813-.10321,1.25113-.91811,1.08473.47908.95036.32049-.53225.83715-.04115A.97246.97246,0,0,1,35.31091,21.25394Z" style="fill: #1d1d1d"/>
        <path d="M35.23,22.29752a.583.583,0,0,0,.13221.15046A1.34086,1.34086,0,0,0,35.23,22.29752Z" style="fill: #1d1d1d"/>
        <path d="M38.29791,28.17673a.6609.6609,0,0,0-.183.04415A.54777.54777,0,0,0,38.29791,28.17673Z" style="fill: #1d1d1d"/>
        <path d="M37.23927,23.40395l-.91394.11849c.60924-.07764,1.45367.61237,1.79973.05668a.83368.83368,0,0,0-.94932-.33036Z" style="fill: #1d1d1d"/>
        <path d="M38.67968,39.48577l-.48557-.0504.5151.49673C38.57959,39.70791,38.96015,39.3977,38.67968,39.48577Z" style="fill: #1d1d1d"/>
        <path d="M38.80956,40.02749l-.10035-.09539A.24248.24248,0,0,0,38.80956,40.02749Z" style="fill: #1d1d1d"/>
        <path d="M37.18359,27.70944a.70842.70842,0,0,0-.50262-.27952C36.66782,27.57589,37.00977,27.98686,37.18359,27.70944Z" style="fill: #1d1d1d"/>
        <polygon points="41.669 40.61 41.01 40.24 41.726 40.735 41.669 40.61" style="fill: #1d1d1d"/>
        <polygon points="44.886 40.426 45.028 40.471 45.562 39.759 45.416 39.718 44.886 40.426" style="fill: #1d1d1d"/>
        <path d="M41.95656,26.00152c-.07176-.144-.23279.47187-.2279.63238l.20814.12943c-.00015-.64872-.05646-.02478-.15887-.26859Q41.8766,26.2554,41.95656,26.00152Z" style="fill: #1d1d1d"/>
        <path d="M60.29073,27.233c.10285.35364-.54371.60561-.77086.37031-.01577-.16585.1858-.494-.12-.5182l.10007.98578c-.87377.01673-.25755-1.19788-.16664-1.644-.62969.352-.45757.91754-1.05834,1.38069a1.03562,1.03562,0,0,1,.66676.07c.38332.451-.33532.6783-.70556,1.02527.41144.00508.39747.29021.35518.61763a.18412.18412,0,0,0-.01525.12713l-.01165.11459.04735-.03784a.5892.5892,0,0,0,.19874.16962c.22915-.396.78819-.2053,1.00833-.36686-.80281-.59308.59718-.74628.68662-1.1903l.25458-.31795.11566-.09272c.0887.06554.13639.19542.07474.4843.03239-.26549.56974-.59926.33453-.807l1.12462-.89244a.48545.48545,0,0,1,.19318.04891.19239.19239,0,0,0-.05676-.1569l4.89929-3.8886c-.29.12965-.63533.1205-.95168.232-.01481-.79695-.48243.2295-.74228-.33294a.53518.53518,0,0,1,.56282-.44238c-.132-.28332-.50827-.33276-.70739-.639-.858.18171-.058,1.40714-.80295,1.7054-.20017-.3071-.208-.70551-.57616-.35673l.05311-.14062c-.38731.81868-1.00417-.26534-.791.83757l-.313-.42427c-.04573.53848-.60707.9787-.87981,1.28289l-.04337-.09485c-.51992,1.16846-.42117.48956-1.26562,1.46664l.08242-.84343c-.501.06738-.16827.6557-.45795.79406-.04477-.09414-.33913-.3542-.16385-.61136l-.6372,1.68366C59.766,27.36989,60.10809,27.09119,60.29073,27.233Z" style="fill: #1d1d1d"/>
        <path d="M58.275,27.80757a.54067.54067,0,0,0-.23538.158A1.7514,1.7514,0,0,0,58.275,27.80757Z" style="fill: #1d1d1d"/>
        <path d="M67.7895,22.44122l-.34414.2732A.83158.83158,0,0,0,67.7895,22.44122Z" style="fill: #1d1d1d"/>
        <path d="M57.243,30.06832c.37774.05171.07676.42371.16435.612l.74758-.59315c-.12833-.15812-.19321-.39537-.32258-.53038Z" style="fill: #1d1d1d"/>
        <path d="M58.60792,30.21959a.89631.89631,0,0,1-.04344-.45736l-.40952.32494A.394.394,0,0,0,58.60792,30.21959Z" style="fill: #1d1d1d"/>
        <polygon points="51.873 21.724 51.995 21.606 52.101 21.326 51.873 21.724" style="fill: #1d1d1d"/>
        <path d="M54.5073,20.80731c-.34843-.11933-.5069.30046-.56016.44057C54.28923,20.96917,54.21029,21.179,54.5073,20.80731Z" style="fill: #1d1d1d"/>
        <polygon points="52.051 18.537 52.28 18.138 52.211 18.115 52.051 18.537" style="fill: #1d1d1d"/>
        <path d="M69.07922,18.80936l.14292-.15471A.47834.47834,0,0,0,69.07922,18.80936Z" style="fill: #1d1d1d"/>
        <path d="M66.50744,21.4462c1.164-.15554-.22251.79656.49425,1.19913l.28154-.53717.0878.18939.49081-.46556c-.323-.19019-.418-.14348-.61887-.45057.797-.43914.48989.1683,1.29326.12741l.75221-.66909.00311.13643a.173.173,0,0,0,.04953-.1823l2.53273-2.25758c.30788-.60744-.67262-.31009-.64406-1.01335-.5623.43983-1.63862.78382-1.23894,1.39649-.04293-.0943-.12909-.28193-.29636-.2613l.04254.72713.42813-.09073c.03913.72661-1.10064,1.44474-1.52,1.30048.47665-.629-.26718-.96224.81146-1.30525-.15115-.11669-.50429-.254-.3774-.4804C68.227,19.74055,67.14257,20.16306,66.50744,21.4462Z" style="fill: #1d1d1d"/>
        <path d="M76.14571,13.506l.0327.05805C76.17458,13.52255,76.16417,13.4972,76.14571,13.506Z" style="fill: #1d1d1d"/>
        <path d="M75.7607,13.69125l-.04035.93613.71128-.62585-.25322-.4375c.01211.15172-.09391.55556-.31541.48016Z" style="fill: #1d1d1d"/>
        <path d="M75.42972,15.401a.66609.66609,0,0,0-.50378-.96623c.186-.49138.576.35519.43749-.326-.26921-.32966-.55238.20661-.60451.34647Z" style="fill: #1d1d1d"/>
        <polygon points="72.395 17.368 72.353 17.091 72.046 17.247 72.395 17.368" style="fill: #1d1d1d"/>
        <path d="M72.35291,17.09059l.30526-.15454a1.89838,1.89838,0,0,0-.3761-.319Z" style="fill: #1d1d1d"/>
        <path d="M73.45824,16.52934a2.24278,2.24278,0,0,0,.44478-.2277Z" style="fill: #1d1d1d"/>
        <path d="M73.06293,16.64661l.05619.05372.33912-.171C73.32151,16.57727,73.19338,16.61319,73.06293,16.64661Z" style="fill: #1d1d1d"/>
        <path d="M72.65817,16.93605c.29675.29279.6137.59623.92644.20734l-.46549-.44306Z" style="fill: #1d1d1d"/>
        <polygon points="54.874 17.129 55.034 16.709 54.963 16.684 54.804 17.104 54.874 17.129" style="fill: #1d1d1d"/>
        <path d="M56.85564,16.067a1.436,1.436,0,0,0,.04385-.322A.44874.44874,0,0,0,56.85564,16.067Z" style="fill: #1d1d1d"/>
        <path d="M56.42343,12.82763c.61194.05109-.15431.81686.619.44834.29579.26022.29251.89491-.13652.98482-.199-.30676.15951-.42-.25963-.56451.05221.49323-.20259.32768.20625.705-.13728.54038.06368.87865.047,1.34376.27162-.51742,1.49956-.75825,1.60019-1.72872-.11144-.74968-.84267-1.32215-1.42629-2.07516C56.89143,11.79848,56.06467,12.30715,56.42343,12.82763Z" style="fill: #1d1d1d"/>
        <path d="M55.27834,12.51316a.422.422,0,0,0-.27356.3018C55.232,13.05086,55.15384,12.62822,55.27834,12.51316Z" style="fill: #1d1d1d"/>
        <path d="M63.47664,15.22822c-.05155-.13132.14391-.49614-.064-.631l-.34806.48653C63.185,15.01927,63.324,15.12077,63.47664,15.22822Z" style="fill: #1d1d1d"/>
        <path d="M62.91129,15.29633l.15332-.21261A.37206.37206,0,0,0,62.91129,15.29633Z" style="fill: #1d1d1d"/>
        <path d="M63.55019,15.27831l-.07355-.05009A.07215.07215,0,0,0,63.55019,15.27831Z" style="fill: #1d1d1d"/>
        <path d="M74.70237,15.86217c.15428.21154.26018-.06845.31387-.2085C74.92036,15.70037,74.752,15.72247,74.70237,15.86217Z" style="fill: #1d1d1d"/>
        <path d="M81.6649,9.14429l.30593.02559C81.83167,9.121,81.76136,9.09715,81.6649,9.14429Z" style="fill: #1d1d1d"/>
        <path d="M80.02527,1.36838a.3574.3574,0,0,1-.04587-.13345A.298.298,0,0,0,80.02527,1.36838Z" style="fill: #1d1d1d"/>
        <path d="M79.9794,1.23493c-.01185-.26645.57188-.29172.50363-.65832l.045.0933L80.659.31916C80.44088.52527,79.92119.87836,79.9794,1.23493Z" style="fill: #1d1d1d"/>
      </g>
    </g>
  </g>
</svg>
