<svg xmlns="http://www.w3.org/2000/svg" width="82.58657" height="39.25485" viewBox="0 0 82.58657 39.25485">
  <g id="Calque_2" data-name="Calque 2">
    <g id="centre">
      <g>
        <path d="M2.4208,4.43808c-.20863-.109-.225-.417-.092-.44616-.54576-.06652-.35638-.32655-.74051.06782-.40386.02616-.43066-.46556-.02244-.42942L.67127,3.35883l.35974.3876C.6395,4.01819.45621,3.12688,0,3.4441l.77315.54511-.12995.0901a.94433.94433,0,0,1,.63375.45361c-.06422.04517-.1274.15033-.26707.05834.8793.72789.731-.43927,1.57113.02243A.3902.3902,0,0,1,2.4208,4.43808Z" style="fill: #1d1d1d"/>
        <path d="M2.50241,5.91186l.66423-.2058.43666.52608c.12692-.15089.60839.02221.45487-.31684a.55116.55116,0,0,1-.27611-.12446c.31993-.29009.83116.3775.94079-.08308-.48606-.23511-.49275-.3586-.9615-.28523a2.23988,2.23988,0,0,1-.65907-.88336c-.153-.03741-.32914.15618-.50516.08514L2.705,4.6876l-.37736.51725c.20306-.0131.27744.12579.41911.21876L1.67088,5.534c-.16881.62767.65338.82127.74269,1.20616C2.444,6.08115,2.81712,6.71488,2.50241,5.91186Z" style="fill: #1d1d1d"/>
        <path d="M2.59712,4.62431,2.581,4.61369Z" style="fill: #1d1d1d"/>
        <path d="M48.75522,24.876a.28473.28473,0,0,0,.04209-.33543L47.32779,25.6987c.14947.09668.70267-.06978.48.23053.24089.04809.5293-.37781.44617-.60028l.0502.28542c.13868-.5239.76715-.19528.66424.13016l.02654-.025.16676-1.7304C48.77044,24.20007,49.16213,24.53963,48.75522,24.876Z" style="fill: #1d1d1d"/>
        <path d="M79.48174,1.7952c-.15556.19489-.14165.26131-.0818.29344A.922.922,0,0,0,79.48174,1.7952Z" style="fill: #1d1d1d"/>
        <path d="M49.2,23.58377l.05256-.54167A1.44752,1.44752,0,0,0,49.2,23.58377Z" style="fill: #1d1d1d"/>
        <path d="M50.847,29.92205a.1549.1549,0,0,0,.04558.05035l.00852-.26267-.00344.00267C50.87621,29.78559,50.85981,29.855,50.847,29.92205Z" style="fill: #1d1d1d"/>
        <path d="M54.98929,17.19969l.07993-.09722A.42615.42615,0,0,0,54.98929,17.19969Z" style="fill: #1d1d1d"/>
        <path d="M47.50733,35.38224l1.04127-1.29157c-.0593.27415.509-.23622.37417.13467.09449-.10987.24045-.31383.13353-.34783l-.127.11314c.02434-.68324-.30909-.67933.01971-1.44115-.54761.03129-.52888.37786-.571.71316a1.24849,1.24849,0,0,1-.21015.2555q-.26091.66739-.58691,1.38543Z" style="fill: #1d1d1d"/>
        <path d="M72.16049,11.262l.01787.0378A.0691.0691,0,0,0,72.16049,11.262Z" style="fill: #1d1d1d"/>
        <path d="M72.25284,11.45485l-.07448-.15508C72.19446,11.39327,72.10892,11.56212,72.25284,11.45485Z" style="fill: #1d1d1d"/>
        <path d="M49.30015,23.93634A.86025.86025,0,0,1,49.2,23.58377l-.03828.40535A.95982.95982,0,0,1,49.30015,23.93634Z" style="fill: #1d1d1d"/>
        <path d="M49.50233,25.23049l-.50741.489-.03674.37346C49.10673,25.84711,49.311,25.59894,49.50233,25.23049Z" style="fill: #1d1d1d"/>
        <path d="M53.92624,17.63552c1.09642-.9545.09749.70631.71535.41441.27358-.30481.206-.62319.3477-.85024-.755.90445-.46953-.858-1.29058-.02254-.19535-.5201.30619-.97017.7053-1.09871.66558.12951-.07782.53462.14984.992.31681-.35165.19489-.37464.17608-.721.65025-.35556.80929-1.425,1.589-1.13387.34879-.41414.17133-.58557.24636-.98511-.2878-.4688-.79783.25695-1.21709.03744.06041.01146.17972.03582.2087.11049l-.4321.19009c.46014-.11613.28787.46856.13078.645-.12615.11292-.37653.338-.43276.19042l.12963-.25c-.366.06588-.32856.761-.78493.74057-.08978-.0858-.02146-.21227-.05226-.28438-.07823.53408-.38858.74712-.68155,1.30987l-.069-.63321c.00423.75689-.92507,1.26363-1.69109,1.458.11988.02325.2738-.01455.2694.12132-.25627.36328-.73812.26684-.758-.07951-.0516.61029-1.48184.67269-1.57,1.48165l-.36258,3.77387a.87422.87422,0,0,1,.15281-.30743c.47878.23031.54413.10661.49232.71545.1668-.44867-.1908-.65512.27982-1.04619-.04219.33646.24538.805.74246.48985.864-1.27475.79936-2.93913,1.45451-4.3249.265.25852,1.04967-.48186,1.5147-.73424a1.24839,1.24839,0,0,1-.42081,1.06928c.21433-.13533.56367-.3936.82868-.57765Z" style="fill: #1d1d1d"/>
        <path d="M51.9985,20.69665a.41015.41015,0,0,0,.13156-.01548A.17762.17762,0,0,0,51.9985,20.69665Z" style="fill: #1d1d1d"/>
        <path d="M53.36456,18.97a.15727.15727,0,0,0,.0204.03449l.08337-.10055Z" style="fill: #1d1d1d"/>
        <path d="M50.07936,24.37928c-.004.13634-.037.19881-.04081.33538a1.62649,1.62649,0,0,1,.08766-.1892C50.14431,24.44848,50.13693,24.39114,50.07936,24.37928Z" style="fill: #1d1d1d"/>
        <path d="M49.45226,24.05007l-.056-.14763a.97329.97329,0,0,0-.09613.0339C49.342,24.00663,49.39234,24.05372,49.45226,24.05007Z" style="fill: #1d1d1d"/>
        <path d="M60.34119,16.84935l.06083-.1484A.14507.14507,0,0,0,60.34119,16.84935Z" style="fill: #1d1d1d"/>
        <path d="M55.58508,17.13483c-.37662.33792.28837.469-.27371.90966l.18608-.10224A6.22786,6.22786,0,0,1,53.991,19.29837c-.07977-.21444-.45448.0171-.60606-.2939a1.41109,1.41109,0,0,0-.51341,1.03831c-.27382.06777-.39407.5512-.74149.63839.235.07673.05693.83343.53291.14594-.03369.06164.02692.0737-.00552.1356.58072-.09029.44607-.59906.79148-.876.33284-.003-.14151.52315.10548.43387.32077-.48793,1.51875-.87259,1.02279-1.45068a.49537.49537,0,0,1,.61153-.15482c.00467-1.0305,2.07764-1.17526,1.437-1.98962a2.15932,2.15932,0,0,0-.60353.77434Z" style="fill: #1d1d1d"/>
        <path d="M50.71586,23.81684a.73464.73464,0,0,1,.08388-.052A.75409.75409,0,0,0,50.71586,23.81684Z" style="fill: #1d1d1d"/>
        <path d="M43.844,25.357l-.24938-.66457A17.80352,17.80352,0,0,1,45.71732,23.044c.12023.02384.05565.14855.023.21192.535-.51572,1.495-1.08212,1.72845-1.658.18886-.14012.80824-.349.74616-.04841a.62163.62163,0,0,1,.23816-.30739c.17724.17114-.18956.23577-.073.398.09229-.05116.15339-.03881.12523-.11411-.01.27311.6509.54045-.00476,1.03058-.59932-.25458.4076-.40069-.12533-.78119-.21691.16336-.04283.33581-.01416.41043-.28176.20126-.37145.0711-.44495-.0534.015.23534-.49482.28838-.45784.63415-.50111.45146-.26051-.39464-.603-.11928l.19043.65749-.65031.3538c-.6976.82574.7938.7744.06025,1.80024-.07828-.35945-.80324-.502-1.3288-.26122.25139-.22515.48822-.93407.9471-1.052-.78923-.01691.629-.56474.02805-.81951a1.235,1.235,0,0,1-.84969.86419l.06594-.12548c-.37191.20381-.214.92309-.8259,1.07743-.21409.19242-.282.0175-.33331-.13071C44.026,25.23594,43.93091,25.46756,43.844,25.357Zm.412-.489.34191-.1861C44.46165,24.65521,44.35076,24.74581,44.256,24.868Z" style="fill: #1d1d1d"/>
        <path d="M6.79349,9.14452,6.73311,9.0321A.20113.20113,0,0,0,6.79349,9.14452Z" style="fill: #1d1d1d"/>
        <path d="M33.55445,30.26435l-.16283-.153A.71653.71653,0,0,0,33.55445,30.26435Z" style="fill: #1d1d1d"/>
        <path d="M28.32379,28.85687l-.34761-.0824A.56328.56328,0,0,0,28.32379,28.85687Z" style="fill: #1d1d1d"/>
        <path d="M8.86068,10.80751l.00577.01028c.02086.00282.04059,0,.06126.00479Z" style="fill: #1d1d1d"/>
        <path d="M21.33158,21.535a.60786.60786,0,0,0-.0571-.22159C21.24312,21.3686,21.26885,21.44571,21.33158,21.535Z" style="fill: #1d1d1d"/>
        <path d="M28.38793,28.87178l-.0082-.02147-.05594.00656Z" style="fill: #1d1d1d"/>
        <path d="M34.15237,33.07817c.05034.01311.09384.02794.15111.0377A.30072.30072,0,0,0,34.15237,33.07817Z" style="fill: #1d1d1d"/>
        <path d="M35.011,31.46321a.49816.49816,0,0,0,.148.03511Z" style="fill: #1d1d1d"/>
        <path d="M44.001,36.48626l.38381-.414A1.91314,1.91314,0,0,0,44.001,36.48626Z" style="fill: #1d1d1d"/>
        <path d="M35.38151,32.27807a.63806.63806,0,0,0,.0897-.03969C35.4264,32.2286,35.38778,32.24608,35.38151,32.27807Z" style="fill: #1d1d1d"/>
        <path d="M6.45428,6.48039l.0157.00946.05136-.05374Z" style="fill: #1d1d1d"/>
        <path d="M5.31105,6.76413l-.24-.12A.54.54,0,0,0,5.31105,6.76413Z" style="fill: #1d1d1d"/>
        <path d="M18.525,18.057c-.00617-.12128-.08551-.32237.04748-.35186C18.37111,17.7167,18.18163,17.97685,18.525,18.057Z" style="fill: #1d1d1d"/>
        <path d="M10.04943,4.23579a1.10278,1.10278,0,0,1-.26432.06845C9.92955,4.29913,10.05326,4.29843,10.04943,4.23579Z" style="fill: #1d1d1d"/>
        <path d="M9.78511,4.30424c-.07149.00264-.1469.00424-.21617.01345A1.098,1.098,0,0,0,9.78511,4.30424Z" style="fill: #1d1d1d"/>
        <path d="M23.35626,15.13067a.15262.15262,0,0,0,.01658.128C23.41633,15.183,23.40158,15.14805,23.35626,15.13067Z" style="fill: #1d1d1d"/>
        <path d="M4.96572,6.43316c-.1301.09046-1.2355-.35191-.5235.30013-.31864.34925-.62125-.20684-.89551-.27219.07922.20175-.259.18205-.318.35006a.80184.80184,0,0,1,.48375.17439c-.056.22952-.39773.149-.54515-.06747.08951.38514-.53713.056-.31118.47343a3.53806,3.53806,0,0,0,2.39755.56392,2.75539,2.75539,0,0,1-1.268-.9045l.39476-.21024c.16719.58464.57074.55939.92862.88569l-.72319-.8368c-.19253-.58.12365-.433.48519-.24548C4.99651,6.57957,4.94119,6.50547,4.96572,6.43316Z" style="fill: #1d1d1d"/>
        <path d="M7.74041,4.05576l-.00728-.0203a.20972.20972,0,0,0-.06137.00444Z" style="fill: #1d1d1d"/>
        <path d="M42.21275,27.41749l-.006-.1907A.62914.62914,0,0,0,42.21275,27.41749Z" style="fill: #1d1d1d"/>
        <path d="M7.03792,6.013l-.00066-.00051C7.04578,6.01346,7.04716,6.01454,7.03792,6.013Z" style="fill: #1d1d1d"/>
        <path d="M41.52238,27.59259l.00675-.039Z" style="fill: #1d1d1d"/>
        <path d="M39.84771,37.43489a.31051.31051,0,0,0,.013.08012C39.93539,37.54412,39.904,37.49561,39.84771,37.43489Z" style="fill: #1d1d1d"/>
        <path d="M41.51842,27.63777l.004-.04518Z" style="fill: #1d1d1d"/>
        <path d="M33.6981,23.45374a.81828.81828,0,0,0-.01219.165C33.72631,23.60213,33.73637,23.55381,33.6981,23.45374Z" style="fill: #1d1d1d"/>
        <path d="M35.08371,25.29631l.00446.06047Z" style="fill: #1d1d1d"/>
        <path d="M17.81235,19.83043a.85988.85988,0,0,0,.2204.144A.59081.59081,0,0,0,17.81235,19.83043Z" style="fill: #1d1d1d"/>
        <path d="M41.52913,27.55356a1.36373,1.36373,0,0,1,.0428-.14742A1.11031,1.11031,0,0,0,41.52913,27.55356Z" style="fill: #1d1d1d"/>
        <polygon points="29.755 22.998 29.836 23.005 29.817 22.964 29.755 22.998" style="fill: #1d1d1d"/>
        <path d="M29.0226,22.04846a.65842.65842,0,0,0,.147-.05855c-.43127-.12038-.91921-.73318-1.25671-.44611.11767.07782.53662.72676.28235.8512.29471.09161.445.594.61154.63329-.22859-.47857.18433-.32058.527-.23963.152.2788-.25765.242-.10909.45939l.56133.37572-.4281-.40551.397-.22006-.07177-.00527C28.78026,22.53666,29.99186,22.45867,29.0226,22.04846Z" style="fill: #1d1d1d"/>
        <path d="M29.16955,21.98991a.46268.46268,0,0,0,.18861.0166A.173.173,0,0,0,29.16955,21.98991Z" style="fill: #1d1d1d"/>
        <path d="M26.39,18.95623a1.1174,1.1174,0,0,0-.17938-.05561Z" style="fill: #1d1d1d"/>
        <path d="M48.52269,26.34425c-.08918-.08637-.70128.06889-.49606.31593l.47115-.23861Z" style="fill: #1d1d1d"/>
        <path d="M16.522,13.645a.85616.85616,0,0,0,.14786.12544l.0603-.0162C16.728,13.69275,16.59125,13.66088,16.522,13.645Z" style="fill: #1d1d1d"/>
        <path d="M27.96147,22.4044a.33907.33907,0,0,0,.23372-.0094A.31936.31936,0,0,0,27.96147,22.4044Z" style="fill: #1d1d1d"/>
        <path d="M16.9616,13.02055A.82542.82542,0,0,1,17.005,12.606c-.13089-.10531-.32728-.04484-.49913-.10238A.93331.93331,0,0,1,16.9616,13.02055Z" style="fill: #1d1d1d"/>
        <path d="M16.49138,12.49971l.01453.00389Z" style="fill: #1d1d1d"/>
        <path d="M48.878,26.24045l.08016-.14747-.01071.11664.37408-.1673a.72123.72123,0,0,1,.098-.1409.13476.13476,0,0,0,.00346.099l.12369-.04869a10.63659,10.63659,0,0,1,.57953-1.42624,1.90779,1.90779,0,0,1,.58965-.70862c-.17314.12629-.35658.35359-.17638.44613.4607-.1159.96587.18946,1.2676-.64508l-.34312.27568.34358-1.17026c.45536.02078-.17153.58412-.12227.87121.39175-.75,1.4736-.40158,1.37614-1.10818.26436.25806.706.68864,1.08246.35-.54381-.1062.07429-.39763-.43587-.567.009-.27265.52577-.24166.38034-.476l.05588.14884c1.03663-.07184.70179-.9622.8096-1.42456A20.37925,20.37925,0,0,1,56.824,19.09611c.17664.17323.77185.56506,1.0229.33761-.07976-.35849.42763-.94746.22778-1.33114-.58585.23062-.17128.58479-.39553.88545-.51131-.16719-.29237-.33148-.78038-.28943.36837-.06682,1.04086-1.10361,1.58442-.99655l-.06524.125c.61379-.15562,1.34709.60672,1.71909-.48911l.20412-.48862a.69673.69673,0,0,0,.051.12526c.62308-.42841.75723.07989,1.18081-.73293-.03277.06282.02793.075-.006.13781.5213-.10337.60493-.77609.8269-1.07564.39052.14513.17316.30741.22363.5932a3.16566,3.16566,0,0,0,1.22632-2.09845l.553-.16634c-.16238.31164-.241.84641-.03255.95575.19034-.2378.04192-.33531.41463-.53841a3.1265,3.1265,0,0,1,.09361.84386c.91668-.23251-.34095-.75383.565-.57663.2177-.16351.13891-.52227-.00563-.75666l.60947-.01963c-.17082-.30895.29738-.69862.58-.9852-.05386-.14861-.482-.0965-.51856.10284-.14476-.23468.11108-.59716.33-.76022.528.516,1.34615-1.18045,1.62048-.302a35.8569,35.8569,0,0,0,2.58775-2.79456c.33473-.00426.77043-.33008.72372.14092C72.146,8.33878,72.087,7.43362,72.9831,6.99c.12031.02262-.34557.27709-.16824.44835.32542-.62465,1.11011-.47053,1.77411-1.23517a.28614.28614,0,0,0-.0413.33643c-.08812-.085.16695-.44849.29756-.69923.15274-.039-.0979.18749.0232.21112,1.73343-.8976,2.27708-2.58059,3.80455-3.72619a.74279.74279,0,0,0-.18441.996l.42694-.3209c.014-.3173.331-.56287.48443-.91183.08848.04672.27746.024.21625.21642C80.7502,2.04454,80.37385.59483,81.54911,0l-.6359,1.73269.51476.03094L81.1574,2.537c.48924-.04063.39111-.74928.6556-.4897-.00482.13533-.19048.23744-.074.398.39983-.12881.25627-.36395.44669-.60249-.15856,1.0697-1.3755,2.00165-1.91444,2.65249-.06636.12611-.023-.21052-.05141-.28447-.25063.226-.553.16627-.80786.52878-.01406.41054.301.06.48631-.04186.14578.23428.05274.28582-.10567.46089-.26461-.25787-1.08743.68149-1.59845.51264-.91021.85377.73881.62636-.31637,1.24553l-.54315-.10805a4.87255,4.87255,0,0,1-1.5839,1.89237l.12426-.11383c-.02164-.21-.23532-.18364-.35635-.206-.58548.22824-.70041.962-1.24588.855a11.137,11.137,0,0,1-1.4491,2.40016c-.50646-.30617.521-.999.5671-1.47187l-.56313.4403a1.062,1.062,0,0,0,.3693-.96063c-.55757.30355-.42325.8119-.80607,1.28709-.05589-.147-.17521-.17139-.39407-.0065l.16365.33713c-.02232-.02045-.06323-.02369-.14439.00978l-.69686.82534c.27357-.01351.47809.2318.69614.06755-.20809-.10886-.05146-.28453.16775-.44779-.042.33585.33432-.00413.45125.15567a6.61657,6.61657,0,0,0-1.16132,1.08013l-.29938-.19491c-.46448.2529-.78392.74018-1.12376.87991l-.02227-.21043c-.55746.30318-.91082.85331-1.552.93464a19.81761,19.81761,0,0,0-.67445,1.932c.07487.49407-1.62975.57433-1.75034,1.44519-.06215-.01086.14025-.52427.20863-.78646-.37216.20382-.30241.8362-.68761.55469.83663-.45557-.26452-.25793-.01028-.62078a2.19323,2.19323,0,0,0-.7278.88883c.56029-.4399.18958.65607.63626.05559a2.60759,2.60759,0,0,1-1.329,1.52834c-.11628-.1603-.23788-.18288-.484-.095l.01818.34957c-.27806.14992.267-.63812-.29107-.334-.20791.784-1.70525.97326-1.37066,1.86381-.60853.01882.5158-.86154-.33912-.75316.139-.5238.83935-.59241.67308-1.03772-.25432.36158-.3571-.208-.57513-.044l-.20046.51019.09293-.05033c-.36172.82362-1.47732,1.431-2.23011,2.10875-.39512.886-.45515,1.76847-1.29591,2.3594.07477-.39752-.83133.31967-.62275-.46465-.52015.10483-.71838.61385-.60422.77581.37165-.20295.15516-.0399.49259-.17937a.93858.93858,0,0,1-.75293.6776c.093-.05027.0334-.06236.00544-.13572-.49292.179-.04223.33525-.26534.63569-.29657-.195-.68373.41781-1.05039.48262l-.08272.67153c.01372-.40981-.43188.19-.6692.00737-.13409.38541-.12133.86954-.58486,1.12284.06907-.262-.52135.10465-.72458-.14186-.89272.3066-.63228,1.59582-1.58073,1.75375-.02526-.07528-.01946-.34581-.264-.25753-.09878.19007-.391.36958-.53412.52493l-.00039-.0111-.003.01377c-.06982.07634-.09618.1469-.05066.20965a3.25046,3.25046,0,0,1-.42917,1.47149c.26535.2573.6457-.21872.776-.469l-.04673-.42133c.50612.30576.44086-.4639.68232-.41624.065.76936-.98967,1.388-1.31935,2.14866a2.852,2.852,0,0,0,2.09971-.96459l-.4273.0544.34329-.276-.57534-.04549a9.60116,9.60116,0,0,0,.90576-.71626c-.344.27655-.7897-.01635-.54339-.10653.60863-.01869.26067-.49981.571-.71315-.18579.1021-.40442.26443-.39445-.00868.85493-.10838.83753-.45694,1.658-.50024-.44084-.43074.62728-.56555.40028-1.02206l-.27834.15176.29756-.69838c.78857.01657-.11694.73283.83442.43828.71632-.47953.30543-.97165.81-1.42408a1.57793,1.57793,0,0,1-.62368,1.32263l.3677-.06516c-.0094.27249-.63191.70111-.94236.91519.23626-.70962-.30807.07815-.73086-.00435.17386.3083.45548.01974.25536.53071a3.01975,3.01975,0,0,1,.90238-.58044c-1.05667.62061-.11739,1.62894-1.13514,2.04788.28894-.42489-.44423-.29357-.59479-.3913a5.29277,5.29277,0,0,0-.57083.71346l.44732.29212c-.354.55156-1.18-.161-1.42315.68785.11252.29567.55805-.3041.49254-.17942-.57525.8498-1.35233.42308-2.26977.65476A1.20577,1.20577,0,0,1,50.57,33.142c-.11125-.29808-.38344-.28279-.2507-.66744-.30716.07679-.44151.46307-.57065.71333.585-.23.07267.4953.09659.707-.27826.151-.11066-.2973-.01292-.48466-.24774.08985-.75733-.08-.59088.366-.20381-.24606.03738-1.09376.3538-1.44424l-.27908.15166c.07043-.26123.1305-.2497.40667-.40138a.62253.62253,0,0,1-.62-.46566c.06021.01237.0289.07338.08712.08607.24757-.08973.34563-.27668.19555-.375-.08543-.47682-.43895.00151-.7041-.063l-.24905.30247-.09082.94325-.04541.47162-.02271.23581a2.07725,2.07725,0,0,1-.1056.30028,3.53067,3.53067,0,0,1-1.86234.97l.003.46438c-.693.49114-1.34419.84962-1.08637.05825.065.10538.13927.01027.2843-.07981a.41182.41182,0,0,1,.04754-.18215l.007-.08668-1.07411,1.10161c.98589-1.44374-.1438-.73545-.1328-1.57145l-.98777,1.03789c.68173-.26774.07673.34469-.15122.63417-.11674-.37448-.87252.68272-1.26892.92562l.02626-.11581a1.21347,1.21347,0,0,0-.243.1163,4.96735,4.96735,0,0,0-1.16384-.82215c.01323.16639-.65.41113-1.039.56709.81533.8087.29583.59092.32119.89946-.08753-.09448-.24952-.22587-.2779-.18875-.14738.01783.14512.2892.1499.44731a6.88891,6.88891,0,0,0,2.00962.97462,2.85609,2.85609,0,0,0,.30513-.57714c-.11305-.03013-.20817.066-.30513.19743A.52579.52579,0,0,1,41.254,38.043a.80018.80018,0,0,1,.47533.09031,9.31932,9.31932,0,0,1,1.266-1.04359l.284.16906.72171-.77256c-.28.42375-.02169.63035-.83584,1.34169.14788.25221.80866-.7124,1.32733-.99233l.14777-.63245c-.04389.32231,1.05031-.47276.37439.446l-1.20992,1.364.42148.02556-1.12205.97226.23973-.45427c-1.45186,1.42141-.9226.14-1.61456.67936a3.28746,3.28746,0,0,0-.70368-.38951c-.58145.1746-1.241-.271-2.32812-1.26935.83009.50569.16609-.312.52819-.39292-.7243-.82522-1.09479-.597-1.58765-.73578-.11378-.4195-.16991-.73383.50891-.15767.26829-.48445-.94569-.61534-.78744-1.206a4.2897,4.2897,0,0,0-2.526-.91546l-.28161-.05242c-.08326-.01188-.12979.00168-.19617-.00462a1.06311,1.06311,0,0,1-.36924-.07914,1.70365,1.70365,0,0,1-.75531-.74577l.19447-.13617c-1.10886-.50415-1.4819-1.138-2.45783-1.67036l-.32717-.98648c.207.04851.882.02666.8616-.342-.02683.71908.45039.83177.61539,1.35723.1297-.09163.05165-.29152.04575-.41467.21236.17189.15976.46295.50692.60438.06006-.1057-.16156-.462.11638-.336l.16664.58536c.62381.26774.78388-.48112,1.2916.12275a1.59611,1.59611,0,0,1-1.10971.22952c.23567.27116-.49-.13536-.35384.21356.6928-.06359.65508.38422,1.371.56356-.10333.00382-.177.06434-.32622-.01436l.65039.75957c-.00519-.092.04387-.122.1232-.12129a.77361.77361,0,0,1,.36417.10948c.37635.17453.77638.34606.82461.12191-.32111-.30388-.61206-.551-.71827-.6391a3.33465,3.33465,0,0,0-.2699-.19809,3.59183,3.59183,0,0,1-.74135-.70544,1.97051,1.97051,0,0,0,1.32251-.11278.0885.0885,0,0,0,.02792.06855c.39452-.2111.31565-.41161.75716-.97362-.74084.06775-.7707-.48524-1.45594-.64769-.33532.23489-.01288.62209.30036.7379l-.60464-.14176.19819-.0739-1.05011-.9832c.227.15015.43907.02763.65594-.02043a1.43623,1.43623,0,0,1-.30158-.52858c-.19718.32009-.37925.51226-.51719.396a2.38029,2.38029,0,0,1-.87812-1.76088l-.101-.04507c-.11306.39711-.9392.14152-1.40473.275.25411-.30385-.22925-.47908-.3147-.80187a1.67819,1.67819,0,0,0-.599,1.37406c.74663.055.53261-.11606,1.1269-.40057l1.03033.3037-.39878.14868c.29572.43252.96782.349.64945.69878-.401.08616-.62766-.33153-1.02761-.24334l.15469.33873c-.74408.00822.03826-.53546-.71664-.71313-.04113.47527-.0681-.01656-.47152.01021.02006.36914,1.0502.67173.46493,1.07927-.4721.00977-.48394-1.38725-1.28244-1.15067l.0661-.04626a1.31771,1.31771,0,0,0-1.30982-.3276c-.105-.36094-.62747-.37406-.90316-.5572l.1281-.15158-.41864-.2202c.39684-.14906.42493.34252.77294.54655l.18665-.321c.0958.62793.74609.29281,1.22315.26182-.60644-.068-1.10471-.9735-1.643-.48048l-.0259-.4912-.20408.01155c-.018-.36755.44388-.56253.86207-.34258.00677.12288.01037.18412-.05608.22964a1.02764,1.02764,0,0,1,.9636.28656l-.33975-.01719a1.64368,1.64368,0,0,0,1.44937.522,15.183,15.183,0,0,0-2.0625-1.81831,15.62368,15.62368,0,0,0-1.82525,1.20473,2.92283,2.92283,0,0,1-1.48578-1.19869l.13037-.09082a.92158.92158,0,0,0-.56309-.37463c-.08465-.32264.39392-.21117.31562-.41125l-.82811-.31555c.256-.24412.82.19238,1.10251.38072-.06855-.016-.20614-.04915-.20212.01308.2225.35564,1.16752.33571.99263.84112.2056.04834-.53683.05528-.04031.47524.22642.4175.61716.14589.74619.05393.12746-.15227-.37215-.63363-.03667-.67515-.28269-.18811-.54589-.06938-.77048-.486.27968.1871.88643.14942.83847.50223.7507.11569,1.2465-.67686,1.0312-.90967-.12027.276-1.17625-.45945-.72273.37485-.53876.05607-1.104-.38053-1.65134-.5095l.06429-.04492-.55862-.31585c.13434-.027.34009.021.46625-.131L24.29539,24.571c.60984.022-.0901-.38388-.17123-.6465-.26045.18158-.668.14607-.5143.48525.15738.40115.27084.003.55118.1913l-.67017.0847-.00348-.06208-.467.13279c-.49584-.42085.78225-.54357-.10975-.7527l-.24182.48736c-.71268-.6537-1.3216-1.88714-2.01-2.11124a.95542.95542,0,0,0,.67276-.84487,3.95333,3.95333,0,0,0,1.0162.81907c.00638.12373-.80241.17455-1.093-.19712-.36092.82533,1.2323.29032.73151,1.02189.73061.9597,1.20986-.13911,1.67205.87865.2536-.30386.34068.0202.59567-.22293.16463-.68885-1.05786-.79483-1.42624-1.36709.06737.01581.20346.04687.26883.00308a1.189,1.189,0,0,0-.83826-.50131l.00337.06154c-.67921-.03929-.0926-.4457-.24607-.78547-.137-.03207-.42884-.40371-.54867-.1295L21.226,20.4528l-.2483.36613c-.28177-.18644-.161-.46184-.567-.437l-.25355.303.57616.62184c-.414-.15827-.32556.22622-.74408.00536.676-.02144-.15615-.39886.02841-.71974l-.40711-.03471.13389-.02945c-.08751-.32553-.34294-.08049-.559-.314.15708.401.17793.76914.72258.83708a4.25516,4.25516,0,0,1-1.23607-.35168c-.38624-.09068-.40007-.483-.6392-.72511.60836.27244.55641-1.08479,1.40624-.0641-.06535.045-.13785-.033-.14139-.09466-.1734.50467.63319.4528.9738.47294.12121-.27381.39771-.15019.10248-.583.015.24728-.72922.25331-.9576-.226l.44771-.43956-.50035-.48193.069.01659c.04077-.47583-.62924-.39167-.86017-.86959-.40739-.03568-1.33926-.98375-1.291-.1223-.09826-.56933-.69846-.408-1.11735-.62818l.30255.557c-.81524-.07011-.48255-.17575-1.35089.04566.06057-.16837.04954-.35367.24768-.42666-.7082-.59188-1.64-1.53964-2.37972-1.47-.49693-.42027-.12779-1.06106-1.02435-1.39441-.20557-.0487-.23869.55089-.6058.039-.00377-.06137.742-.00678.181-.38115-.672.08373-.726-.89935-1.47276-.95446-.15383-.33815-.64467-.637-.31822-.863.35848.388.98914.77872,1.18932.70429-.197.136.15685.40216-.25423.30518.446.70986.5476.12867.98551.717.13165-.08992-.02973-.55366-.23245-.53981.3147-.41007,1.25359.65821,1.13814-.21673-.56875-.49893-1.40752.21435-1.5902-.6171.40038-.08739.56074.37479,1.15728.15074l-.297-.49423-.53765.05531.06515-.04586c-.45937-.95685-1.02058-.11911-1.8505-.43655.16842.5856-.64023.63777-.4829,1.039-.48907-.29712-.77647-.60756-.46187-1.01817,1.09832.31989.38348-.39488,1.476-.19827-.01364-.24528.64943-.4538.22205-.85855-.74769-.11383-.1085.46117-.73317.192a.16766.16766,0,0,1,.05923-.16781c-.404.02634-.21947-.29334-.691-.28379l.13222-.02848c-.16387-.52524-.6084-.0227-.70568-.53112-.11266.39827-.39918.088-.73659.129.222.3566.05233.92239.68511,1.37572.26051-.182.31919-.34995.66138-.26968L8.52,10.78731a2.8425,2.8425,0,0,0,.34646.03048l.28688.42214c-.61917-.20665-.59567.22293-.99581.31136-.36338-.45048-.4183-.21946-.63712-.51514.30134-.32953-.39074-1.26717-.72691-1.89163.06884.07557.17847.14639.22691.1985.54479.06709-.028-.49218.03351-.59959l-.40777-.035c.06981.01553.20408-.01155.12714-.15119-.41784-.22006-.66762.14511-1.08513-.074.12285-.21476.66141-.268.51248-.54661a.84345.84345,0,0,0-.4677-1.08143c-.09232.04744-.25084-.009-.42188-.091a.20549.20549,0,0,0,.07976.011l-.15933-.46233c.53244-.11619.43622.58882.971.47253L6.47,6.48985a1.21881,1.21881,0,0,0,.87558.20026c-.28689-.30891-.42031-.28022-.83834-.50071.1029-.23845.47619-.18453.53-.17695l-.19383.13619c.23591.60075.88909.20849,1.38912.69084.07239.07691.00409.061-.06061.1064.678.03919.787.793,1.5283.72535l-.26863.05664c.39609.09369,1.20772.22892,2.01084.37426l.09982-.11876c-.0063-.12281.20475.04807.281.1872l-.00191.00128c.40224.07348.78422.14992,1.08927.222a.62926.62926,0,0,0-.14828-.36585c-.20109.07392-.63437-.45162-.8154-.07023-.08965-.385-.69947-.40667-.78146-.66853.16141.46167-.46494.13181-.6615.26731.051-.29045-.49274-.35811-.23522-.60163-.008-.12178.01644.3074.28334.24894.54013.00637-.44562-.71034.16818-.62635C10.031,6.35322,9.3875,5.71727,8.63412,5.54031l.22282.35475c-.21525-.23238-.84716-.625-.787-.79253.20842.1104.42017.28039.69793.40729.254-.30325-.56517-.43649-.44148-.64946l-1.0832-.01313.28484.24954c-.33534.04334-.78134-.67071-1.20973-1.07417.59783-.22115.70635.53144,1.32618.73842.47947.11283.10257-.58226.51664-.42442a.39832.39832,0,0,0-.428-.30114l-.07159-.18022c.60046-.15631,1.202.45065,1.9074.46245A.43143.43143,0,0,0,9.3817,4.382a1.81843,1.81843,0,0,0,.993.839c-.08132-.2602-.21616-.23119-.35219-.26487.06192-.10556.40977.09834.612.08467-.22289-.355.12021-.27421-.02666-.49141a1.20852,1.20852,0,0,1,.63253.45247c.01376.24633-.26313.11983-.38617.332.34386.08233.10216.63288.6469.7-.43185-.46572.456-.31741.72682-.3139l-.07251-.07795q.49845-.15521.42067.28145c-.27439-.06518-.42067-.28145-.5413-.00738a1.42583,1.42583,0,0,0,.48753.23691l-.26647.05842.70212.469a5.99879,5.99879,0,0,0,.98462-.49612c.01691.3073.3576.3275.5635.375l-.13567.02921c.15884.401.9235.76389,1.11781.62759.08529.32266-2.367-.01217-.75716.97362.5643.43608.795-.29885,1.27-.24638a.14226.14226,0,0,0-.06061.10641c.214.23319.40754.03532.68172.10061-.08035-.20148-.29143-.37182-.4247-.34282.26-.18123.49677.42015.83209.3785-.53154.17788.36683.51092.02951.55226a1.44894,1.44894,0,0,0,1.52479.66247c-.027.72082.63093.39185,1.004,1.02558-.07227-.07825-.27671-.12589-.35405-.26585-.53566.05411.43951.58863-.24218.48833.13688.03291.12827-.15012-.01159-.18459-.20718-.1083-.47838-.11255-.5366.05651l.23809.6013-.20871-.04838.38829.87791c.0639-.04476.05836-.16687.05482-.22853a21.001,21.001,0,0,0,2.33266,1.82355c.7708-.72833,1.945.94384,2.88814.86193a1.3709,1.3709,0,0,0-.78043.72217c-.14935-.06018-.65952.0796-.88235-.20553.05906-.16727-.16631-.58376.17221-.56449-.83939-.501-.17853.44338-.644.57549a7.78624,7.78624,0,0,0,2.47272.70381l-.06232.1081.54813.12985c-.28779-.312.0932-.76818.39167-.273l-.06973-.01717c.08976.386.77531.54755,1.1312.873l.46822-.071c.35612.32654-.02019.84414-.13162,1.24251.56817.49885,1.23415.35247,1.84855.43569.02006.36913.872,1.11518.19144,1.01461.68838.2238,1.49743-1.04029,1.91085.33013l-.40456.02656c.91579.641,2.5013,1.19576,2.73343,1.73514-.91841.51007.49695,1.63251.0718,2.50253.08929-.205.46466-.00443.584-.05826.00426.14431.0589.32324.307.2687-.22676-.41758.84567-.58888-.04617-.79789a2.06532,2.06532,0,0,1,2.17989.2701l-.2538.30362-.50242-.54312c-.121.27569-.40412.02767-.6082.03921.93557,1.00919-.70856.6215.41908,1.43307.26318-.11989.12972-.08981.47689.05163-.14209-.09378-.33335.10246-.12061.27437l.40087-.08768c-.02175.81766-.89687-.154-.85476.46561-.61379-.084-1.4486-.523-1.62189-.01848.57877.68182,1.20187-.26246,1.78385.48029l-.05495.22937c.344.08216.59874-.16067.8667-.21812-.06229.106-.05392.22855.08761.38337a17.71158,17.71158,0,0,0,1.82339-.05427c-1.30921-.49083-.66367-1.00552-1.97886-1.55857.27109.00322,1.11069.50348,1.49291.109l-.25327.30478a2.15485,2.15485,0,0,1,1.32248.67493l-.40786-.03509c.75776.24041.60986,1.23511,1.47869,1.0764a.85876.85876,0,0,0-.42122-.28073,1.56738,1.56738,0,0,1,.57378.28645,1.53084,1.53084,0,0,1,.3766.36447,2.9228,2.9228,0,0,0,.60846-.35465c-.09928.17145.06063.31091-.15554.53965.094.45464.41291-.0442.52618-.08019.07852.59292-.20732.07582-.43075.594.27189.44384.7076.57271.88136.2572a.74447.74447,0,0,1-.063-.35841c-.0037.15532.11067.20321.17141.25529l.0395-.2736.00248-.0233a.76768.76768,0,0,1,.00156.65645c.12214-.0319.1958-.71549.3398-.35775a.71814.71814,0,0,1-.34384.465c-.07069-.05956-.12976-.09885-.17385-.03849a.22327.22327,0,0,1,.17385.09574c.22912-.06767.415.63868.87946-.06547.04291.12224-.00831.46479.12088.36868.26635-.327-.0833-.60627-.08859-.964-.13169.30469-.27472.21735-.42732-.0748l-.001-.2641c.028.11553.12458.04829.1815.13627l-.08938-.4689c.10329.51557.39368.74418.47575.45746-.259-.23068-.21186-.24511-.42122-.76105-.06836-.59025.35756.35355.28069-.26769.0674.13922-.03229.35964.15008.36441.12127-.06837-.07845-.37736-.08329-.52182a7.77105,7.77105,0,0,1,.42753,1.12185c-.23546.24571-.09823.06992-.29168.437a2.96682,2.96682,0,0,0,.36457.13633c-.22395.25492-.01736.58185.01777.74446.68712-.02891.11243-.84153.437-.96361-.01555-.32861-.28557.15045-.23131-.24832.13668-.07.115-.13417.07808-.22258a.63173.63173,0,0,1-.04869-.15458c.00186-.06782-.03768-.10228.08747-.25347l.02362.20965c.30161.06046.28235-.288.44166-.462.129-.25081-1.0651-.89785-.25111-1.56431a.58458.58458,0,0,0,.0822.22044l1.21147,3.22919A19.58986,19.58986,0,0,1,48.027,26.66059c.62466.32979-.36943.95979-.13178,1.14238l-.52513.24164c-.14274-.23493.8791-.79065.18171-.8593-.66416.76494-1.21277.79425-1.61167,1.81723.62728.32946.9099-.853,1.70025-.83579a1.17664,1.17664,0,0,0-.46717.51684l1.625-.92033.02037-.21355a6.64822,6.64822,0,0,1-.71352.36382.962.962,0,0,0,.40859-1.29645l-.09269.05033.07691-.24584ZM78.91345,3.02411a.49941.49941,0,0,0,.034.181C78.92215,3.13773,78.876,3.11752,78.91345,3.02411Zm-38.91072,29.438,1.7266,1.61825.39323-.25894a3.55352,3.55352,0,0,1-.39323-.06455c-.92448-1.64477-1.12355-2.47983,0-1.67663l.27242-.21747.104-.16645a.96061.96061,0,0,0-.37638.17187,2.90213,2.90213,0,0,0-.54774-.38191,6.68706,6.68706,0,0,1-.89211.45932,4.09779,4.09779,0,0,0-.77977.33463c.05145.37053.32247.22036.53252.4849Zm-.01164-1.9882c-.27685-.3468-.27762-.08545-.39677.057l.368.19719A.27267.27267,0,0,1,39.99109,30.474Zm-.44495.25547a.22619.22619,0,0,1,.07467.106Zm6.78272-1.57993-.02893.03694.27839-.1613A.50262.50262,0,0,0,46.32886,29.1495Zm-.98925.19157.12651.33352.25965-.15252A.5714.5714,0,0,0,45.33961,29.34107Zm-2.42738.46882c-.0034.52055-.40147.85339-.36153,1.42051-.01037.16143.0893.14254.20288.1036l.38906-.25287a.64555.64555,0,0,1,.02649-.26667c-.14547.03816-.253-.02642-.26929-.381.47341.4324.15625-.69118.50178-.75534C43.37668,29.27607,42.96857,29.59715,42.91223,29.80989ZM13.18418,10.08826a2.80608,2.80608,0,0,0,.06735-.30059l.42062.03182c.432.46584.41228,1.30939,1.21564,1.19562a1.61106,1.61106,0,0,1-.00993.89345,1.64628,1.64628,0,0,1-.2262-.2808C12.87841,11.33044,14.55334,10.41033,13.18418,10.08826ZM18.36449,15.17a.18617.18617,0,0,0-.13451.02992,6.0854,6.0854,0,0,1,3.27774,1.1766c.09525-.36107-.27656-.98655-.44331-1.29627l.46521-.1337-.04835.35213.60911.023c.05227-.29265-.29683-.49478-.38374-.81822-.064.04438-1.01974-.12036-1.35621-.07724l.37349.63325a3.533,3.533,0,0,0-1.195-.82683c-.12609.15068.17752.76968.50051.48139-.12038.27492-.68612-.16133-.521.36231-.613-.08379-1.12634-.81123-1.34979-1.16752l.24728-.427c-.22546-.41637-.59293.28529-.82605-.25419.5585.31349.2446-.48891.66492-.20869-.01365-.24462.31493-.41036-.10629-.6911-.7289.2529-.17082-.647-.835-.4399-.08529-.32266.46453-.13213.10556-.52122-.68168-.09916-.80405.11465-1.1226.46377.36109.448.87287-.09733,1.16413.27436l-1.2146.07765a.44445.44445,0,0,0,.2555.31726.90554.90554,0,0,0-.57564-.02809c-.11662.02645-.22038.046-.31313.06.40519.32023.76009.61076.70089.819l-.19654.13665c.01553.27792.35172.331.56287.28325.38017.26429.94039.29636.83831.59207l-.26692.05731A8.2317,8.2317,0,0,1,18.36449,15.17ZM32.75621,27.021a1.91721,1.91721,0,0,0-.962-2.56131l.1354.03195c-.31667-.91238-1.67356-.42094-2.09325-1.48678a2.63468,2.63468,0,0,0,1.39338-.19447l-.55027-.12828c.39215-.2726-.15668-.40069-.44062-.64887l.59526-.2241c.08273.26177.51056.66593.57279.55794-.138-.03149.19048,1.015.67386,1.19139.18567-.321-.72221-.83841.011-1.02895-.47595-.051-.29074-.37136-.70578-.53081.47657.05186.38724-.33352.79128-.35821L31.55,21.3107c.06073-.10774.96892.40928.795-.29825-.33883-.01971-.7797-.66877-1.03315-.3646l.06108-.10651c-.36018-.38871-.52533.3008-.89379-.27153a.26733.26733,0,0,0,.09075.44521c.20778.04956.39834-.147.74846.05522-.04813.35438-.35759-.327-.45949.25691-.05085.29032.97274.47143.38059.75572l-.35974-.38759c-.25385.30451-.53847.05467-.72619.31343-.34157-.08074-.30537-.61808-.77416-.54618-.26415.11913-.36972.63986-.66831.14515.02709-.72124-1.02329-1.39358-1.44193-1.61294l-.47649-.05046c-.12182.2131.63421.4515.23423.54007l-.55972-.31443.13221-.09015c-.1454-.15574-.41559-.15874-.62033-.208.33113-.10381.6219.26767.8035-.11394-.18532-.24711-.12742-.39553-.39243-.50157.06518.01373.13066.01344.16033-.037-.36685-.51105-.74317.00654-.945.01981-.80826.05132.17686.7685-.14516,1.05621l-1.53717-.908c.20155-.01284.40356-.02459.46245-.19332-.2258-.41712.18884-.25883-.3049-.61734-.3118.4717-.82186-.194-1.36188-.20136-.01717-.30579-.02138-.36778.33018-.10293.18488-.32-.3679-.57171-.51319-.72707-.15205-.0028-.34851-.08832-.50241-.10474.027.25242-.17291.387-.57011.27616l-.06466.04692c.43222.46305.954,1.37583,1.49377,1.32051l-.19881.075c.37706.69455,1.64741.448,1.48628,1.19907-.19234.19712.076.13912-.17662.44345l.61056.08327-.19757.07343.77078.486-.0647.04411,1.36576-.06478c.10672-.13554.11719-.19466.30845-.20658a.45872.45872,0,0,1,.32381.15547l.00176-.0011-.0012.00155c.14469.17636.10952.463.264.71074l-.6918-.48394a.66275.66275,0,0,0-.16368.88846c-.14027-.09493-.33633.0421-.192.197.06491-.04605.551.19148.53507-.1167.69781.40746,1.24923,1.81071,2.55106,2.11776-.8954-.27183.31178.73974-.52768.23912.24662.78579.74308-.00643,1.2429.475-.05686.169-.283-.24815-.61213-.08328.79038.85285,1.993.591,2.782,1.38478l-.18674.31747Zm2.01314.98828.59092.29993-.04383-.04777.68733.1618c-.2237-.355-.1822-.83155.36843-.64039-.12938.09073-.11587.33619-.32152.28809.15721.40035.66751,1.06627.8397.50014-.88163-.02434.30083-.65676-.37783-.69391.45753-.1.59244.21019.91463.257-.41752.05686-.36463.58074-.1033.96582.20434.04641.57117.43933.90321.51286.11078-.34178.44588-.32593.10151-.70157a.73181.73181,0,0,1,.57.46177c-.12019-.02013-.30389-.10987-.36377-.002-.02475.37438.1766.51358.21406.71068l.27747.14729a.40761.40761,0,0,1-.00673-.152q.20607-.02858.39813-.068c-.41716-.12309-.0869-.2652.00389-.44533-.18545.35658.19225.21469.30318.28424q-.04-.29556-.06064-.576c.18868-.11863.26516.58844.36391.14106a2.07574,2.07574,0,0,0-1.07084-.79477l-.01011.40268c-.63905-.20586.00217-.70338-.68043-1.21427-.47131.00877-1.0598-.798-1.43859-.34062.19851-.075-.10951-.75384-.5131-.72719-.59665.223-1.43918-.33937-1.34966.04407.21142.17278.68455.16286.64085.57656l-.48737-.23593.09279.44678C35.13506,27.37629,34.97128,27.61519,34.76935,28.0093ZM46.29493,34.089l.03013-.01346-.03037.02125Z" style="fill: #1d1d1d"/>
        <path d="M6.24073,6.24819c-.20307.0131-.48664-.23555-.60683.03914C5.82322,6.02906,6.195,6.66171,6.24073,6.24819Z" style="fill: #1d1d1d"/>
        <path d="M6.0774,5.72479c-.06791.04419-.12843.152-.26862.05713l.41708.22136Z" style="fill: #1d1d1d"/>
        <path d="M7.04562,3.711a.86587.86587,0,0,1-.82227-.19434c.3669-.70211.62037.20645,1.20147-.26277-.49978-.48149-1.08513-.074-1.57378-.37032C5.87348,3.313,6.66556,4.166,7.04562,3.711Z" style="fill: #1d1d1d"/>
        <polygon points="7.892 3.122 7.481 3.025 7.483 3.084 7.894 3.181 7.892 3.122" style="fill: #1d1d1d"/>
        <path d="M10.29666,13.571c-.12245.21374.21356.1712.3509.20353C10.57493,13.698,10.499,13.55788,10.29666,13.571Z" style="fill: #1d1d1d"/>
        <path d="M75.2006,12.3071l2.16656-1.98322C76.7402,10.88984,76.145,11.39148,75.2006,12.3071Z" style="fill: #1d1d1d"/>
        <path d="M18.94324,18.278c-.76161-.30117-1.2953-.18387-1.99315-.59128.53008,1.03407,1.56872.249,1.95815,1.18875Z" style="fill: #1d1d1d"/>
        <path d="M17.53112,19.64212c.179-.44233.80889-.052.92525-.3876-.4869-.23689-.46293.19343-.81834-.13284Z" style="fill: #1d1d1d"/>
        <polygon points="19.376 11.468 19.71 11.425 19.505 11.376 19.376 11.468" style="fill: #1d1d1d"/>
        <polygon points="20.609 21.52 20.477 21.549 20.699 21.905 20.609 21.52" style="fill: #1d1d1d"/>
        <path d="M20.34367,21.57865l.13346-.03009Z" style="fill: #1d1d1d"/>
        <polygon points="20.222 10.878 20.002 10.584 19.735 10.642 20.222 10.878" style="fill: #1d1d1d"/>
        <path d="M21.17876,14.74158l-.34023-.07875C20.90571,14.67888,21.132,15.09425,21.17876,14.74158Z" style="fill: #1d1d1d"/>
        <polygon points="22.39 23.152 22.803 23.249 22.799 23.189 22.388 23.092 22.39 23.152" style="fill: #1d1d1d"/>
        <path d="M23.9136,15.26587c.04378-.413.55768.31283.39354-.20986C23.95738,14.85289,23.97273,15.09817,23.9136,15.26587Z" style="fill: #1d1d1d"/>
        <path d="M26.11793,20.01036a.25915.25915,0,0,0,.15779.05706A1.049,1.049,0,0,0,26.11793,20.01036Z" style="fill: #1d1d1d"/>
        <path d="M26.11793,20.01036c-.13252-.103-.18229-.31268-.33578-.30283C25.84939,19.96209,25.94644,19.96147,26.11793,20.01036Z" style="fill: #1d1d1d"/>
        <path d="M27.68713,21.12656l-.10481-.11324c.22971-.042.15575-.067-.03987-.04174-.13469-.08964-.19606.0041-.258.05244l-.16252.04739.18279-.01955C27.50016,21.20776,27.63127,21.28768,27.68713,21.12656Z" style="fill: #1d1d1d"/>
        <path d="M29.67986,30.20636c-.36331-.44889-.43911-.58831-.247-.78568-.36789-.3965-.59181.02641-.9133-.0847C29.02879,29.66517,29.04893,29.84045,29.67986,30.20636Z" style="fill: #1d1d1d"/>
        <path d="M28.51959,29.336l-.17989-.11206A.50458.50458,0,0,0,28.51959,29.336Z" style="fill: #1d1d1d"/>
        <polygon points="27.75 17.383 28.283 17.267 28.146 17.234 27.75 17.383" style="fill: #1d1d1d"/>
        <path d="M30.254,30.82764c-.07162-.07774-.211-.17075-.21816-.29535C29.84329,30.731,30.32574,30.90484,30.254,30.82764Z" style="fill: #1d1d1d"/>
        <path d="M31.83773,25.25811c.058-.16761-.28773-.30917-.3638-.44994C31.61807,24.965,31.44338,25.46867,31.83773,25.25811Z" style="fill: #1d1d1d"/>
        <path d="M32.221,30.92626a.33984.33984,0,0,1,.109-.45806C32.12788,30.48128,31.66955,30.73671,32.221,30.92626Z" style="fill: #1d1d1d"/>
        <polygon points="32.619 25.928 32.613 25.805 32.201 25.708 32.619 25.928" style="fill: #1d1d1d"/>
        <path d="M34.01771,21.893c-.54226-.00784.05808,1.04371-.70021.80451.54909.86035.22582-.41051.75331.06669A.74209.74209,0,0,1,34.01771,21.893Z" style="fill: #1d1d1d"/>
        <path d="M34.07081,22.76422a.75662.75662,0,0,0,.138.143A1.74617,1.74617,0,0,0,34.07081,22.76422Z" style="fill: #1d1d1d"/>
        <path d="M37.60975,28.13636a.62788.62788,0,0,0-.18257-.00212A.60129.60129,0,0,0,37.60975,28.13636Z" style="fill: #1d1d1d"/>
        <path d="M36.02486,23.94171l-.81349-.0107c.54245.00827,1.39091.69309,1.637.26589a.9935.9935,0,0,0-.89991-.3939Z" style="fill: #1d1d1d"/>
        <path d="M38.15255,36.8176l-.48557-.13221.51509.47269C38.05246,36.96474,38.433,36.80606,38.15255,36.8176Z" style="fill: #1d1d1d"/>
        <path d="M38.28242,37.24913l-.10035-.09105A.29854.29854,0,0,0,38.28242,37.24913Z" style="fill: #1d1d1d"/>
        <path d="M36.496,27.56972a.91308.91308,0,0,0-.48912-.29687C36.01268,27.39449,36.3722,27.78287,36.496,27.56972Z" style="fill: #1d1d1d"/>
        <polygon points="41.142 38.242 40.483 37.836 41.199 38.347 41.142 38.242" style="fill: #1d1d1d"/>
        <polygon points="44.359 37.707 44.501 37.713 45.035 37.075 44.888 37.073 44.359 37.707" style="fill: #1d1d1d"/>
        <path d="M41.42943,27.3415c-.07176-.12194-.2328.30864-.2279.43l.20814.13754c-.00016-.48657-.05646-.02956-.15887-.23234A3.09161,3.09161,0,0,0,41.42943,27.3415Z" style="fill: #1d1d1d"/>
        <path d="M58.76057,25.59726c.05032.28609-.56584.57714-.74309.406.00581-.1381.22815-.43955-.04588-.42293l-.02878.82008c-.79348.12-.08816-.98006.04824-1.36774-.613.37344-.52562.83-1.1259,1.29382a.96462.96462,0,0,1,.59545-.02166c.29257.33427-.3859.61326-.7633.951.37207-.04555.32487.19685.24689.47839a.16794.16794,0,0,0-.02921.10917l-.02444.09816.04748-.03769a.3486.3486,0,0,0,.15946.11912c.25554-.362.73881-.2688.95778-.43188-.65532-.40341.63133-.70236.76614-1.088l.26911-.29925.116-.09229c.07241.04458.09986.14846.009.3998.0615-.22806.58866-.57493.40078-.72183l1.12679-.88967a.403.403,0,0,1,.169.01789.1223.1223,0,0,0-.03241-.12558l4.90881-3.87637c-.27841.14459-.59007.1787-.89012.31114.08313-.671-.46478.25218-.632-.19114a.67351.67351,0,0,1,.56339-.44165c-.08526-.2232-.42006-.21936-.56333-.45378-.79921.25735-.223,1.19495-.9339,1.537-.14411-.235-.10292-.57041-.47866-.23136l.06514-.12515c-.45.73808-.87742-.10234-.81794.80293l-.23214-.32026c-.10666.46013-.66846.89978-.95235,1.18963l-.02779-.07482c-.61249,1.04942-.4408.46432-1.32406,1.39149l.17684-.722c-.462.11758-.23187.57393-.511.72583-.02915-.074-.26427-.25793-.07436-.49627l-.78113,1.49858C58.2687,25.77636,58.61233,25.49964,58.76057,25.59726Z" style="fill: #1d1d1d"/>
        <path d="M56.86516,26.3265a.71274.71274,0,0,0-.23235.16188A2.32892,2.32892,0,0,0,56.86516,26.3265Z" style="fill: #1d1d1d"/>
        <path d="M66.13338,20.64346l-.34482.27233A1.10015,1.10015,0,0,0,66.13338,20.64346Z" style="fill: #1d1d1d"/>
        <path d="M55.65652,28.36008c.33589-.00211.0182.34841.07473.49675l.749-.59132c-.09709-.11794-.1271-.31036-.22792-.40867Z" style="fill: #1d1d1d"/>
        <path d="M56.87449,28.32243a.68193.68193,0,0,1,.01606-.38084l-.4103.32392C56.553,28.3537,56.663,28.39971,56.87449,28.32243Z" style="fill: #1d1d1d"/>
        <polygon points="51.804 21.966 51.929 21.852 52.058 21.602 51.804 21.966" style="fill: #1d1d1d"/>
        <path d="M54.30051,20.87323c-.30115-.05853-.49554.31507-.56076.43979C54.08338,21.03629,53.98646,21.223,54.30051,20.87323Z" style="fill: #1d1d1d"/>
        <polygon points="52.351 19.254 52.606 18.89 52.547 18.878 52.351 19.254" style="fill: #1d1d1d"/>
        <path d="M67.74159,17.42114l.14819-.14792A.62146.62146,0,0,0,67.74159,17.42114Z" style="fill: #1d1d1d"/>
        <path d="M65.09266,19.95877c1.07319-.27233-.29806.69943.3024.95245l.3201-.4876.05658.14925.501-.45249c-.26949-.12144-.36128-.07048-.506-.3054.7751-.46729.42335.08273,1.156-.04912l.76239-.656-.01371.1148a.17338.17338,0,0,0,.06695-.1599L70.306,16.852c.35246-.5501-.57169-.18029-.4606-.77745-.56262.43943-1.5792.86022-1.2914,1.329-.02747-.07441-.08278-.22236-.23679-.18468l-.04956.60869.39879-.12846a1.97659,1.97659,0,0,1-1.53431,1.282c.50795-.58875-.12544-.78.89314-1.20022-.12277-.08019-.426-.15336-.28364-.35984C66.85684,18.31052,65.82339,18.79858,65.09266,19.95877Z" style="fill: #1d1d1d"/>
        <path d="M74.7848,12.08784l.02259.045C74.80894,12.09833,74.80259,12.07819,74.7848,12.08784Z" style="fill: #1d1d1d"/>
        <path d="M74.41363,12.2909l-.15.79517.72009-.61452-.17637-.33866c-.0074.12662-.15236.48038-.34387.44356Z" style="fill: #1d1d1d"/>
        <path d="M73.90668,13.77442a.44461.44461,0,0,0-.33925-.75468c.228-.43736.47872.23008.43577-.32824-.20391-.2457-.52537.24134-.58953.36573Z" style="fill: #1d1d1d"/>
        <polygon points="70.919 15.803 70.915 15.574 70.618 15.743 70.919 15.803" style="fill: #1d1d1d"/>
        <path d="M70.91508,15.57352l.29521-.16745a1.12537,1.12537,0,0,0-.302-.22374Z" style="fill: #1d1d1d"/>
        <path d="M71.98426,14.96579a2.91638,2.91638,0,0,0,.43046-.24611Z" style="fill: #1d1d1d"/>
        <path d="M71.612,15.11269l.04439.03854.32788-.18544C71.8546,15.02282,71.7342,15.06867,71.612,15.11269Z" style="fill: #1d1d1d"/>
        <path d="M71.21029,15.40607c.23333.21123.48365.429.814.0628l-.368-.31764Z" style="fill: #1d1d1d"/>
        <polygon points="55.079 17.724 55.274 17.35 55.213 17.337 55.018 17.711 55.079 17.724" style="fill: #1d1d1d"/>
        <path d="M57.00189,16.58692a1.33309,1.33309,0,0,0,.07873-.27718A.41573.41573,0,0,0,57.00189,16.58692Z" style="fill: #1d1d1d"/>
        <path d="M57.00285,13.90452c.5481-.031-.23873.70831.50634.30351a.52887.52887,0,0,1-.243.84793c-.14307-.23485.19536-.37387-.16678-.44511-.01247.41007-.2232.30118.10141.57015-.18981.47283-.04876.73406-.12024,1.12874.30871-.46972,1.45013-.82181,1.65886-1.65328-.01011-.61939-.6031-1.01409-1.04051-1.57909C57.55144,12.979,56.74094,13.50859,57.00285,13.90452Z" style="fill: #1d1d1d"/>
        <path d="M56.00374,13.77777a.535.535,0,0,0-.28435.28792C55.89662,14.23731,55.877,13.89,56.00374,13.77777Z" style="fill: #1d1d1d"/>
        <path d="M63.10071,15.07664c-.03078-.10462.19046-.43629.0185-.525l-.3742.4529C62.86182,14.93558,62.9755,15.00442,63.10071,15.07664Z" style="fill: #1d1d1d"/>
        <path d="M62.58037,15.20263l.16464-.19806A.468.468,0,0,0,62.58037,15.20263Z" style="fill: #1d1d1d"/>
        <path d="M63.16126,15.11l-.06055-.03338C63.10769,15.09876,63.12241,15.11515,63.16126,15.11Z" style="fill: #1d1d1d"/>
        <path d="M73.192,14.25183c.11412.15989.244-.0893.30956-.214C73.40906,14.08883,73.25389,14.12788,73.192,14.25183Z" style="fill: #1d1d1d"/>
        <path d="M80.31243,7.737l.274-.01547A.33819.33819,0,0,0,80.31243,7.737Z" style="fill: #1d1d1d"/>
        <path d="M79.76932,1.37108a.22758.22758,0,0,1-.02538-.1071A.19092.19092,0,0,0,79.76932,1.37108Z" style="fill: #1d1d1d"/>
        <path d="M79.74394,1.264c.02155-.2235.55335-.31555.53594-.61678l.02949.07331.16109-.312C80.24792.609,79.73441.97,79.74394,1.264Z" style="fill: #1d1d1d"/>
      </g>
    </g>
  </g>
</svg>
