<svg xmlns="http://www.w3.org/2000/svg" width="81.9827" height="36.68897" viewBox="0 0 81.9827 36.68897">
  <g id="Calque_2" data-name="Calque 2">
    <g id="top">
      <g>
        <path d="M2.27726,3.59881c-.2-.12-.26409-.3667-.15249-.36834-.48794-.14086-.36436-.31628-.63653-.06588-.3489-.04451-.45177-.43842-.089-.34385L.57317,2.46113l.37716.3652C.6519,2.9784.34766,2.24262,0,2.42026L.76408,2.977.665,3.02743a1.38036,1.38036,0,0,1,.62741.46176c-.04886.02541-.08711.09852-.2241.00308.88642.71873.56824-.23,1.37739.27155A.5661.5661,0,0,1,2.27726,3.59881Z" style="fill: #1d1d1d"/>
        <path d="M2.58668,4.77965l.54755-.05575.46679.48734c.08659-.09905.53554.11587.34654-.17755A.77887.77887,0,0,1,3.686,4.89048c.23289-.17816.78773.43335.80919.08614-.463-.26478-.48878-.3637-.88679-.38129a3.12068,3.12068,0,0,1-.719-.80634c-.13986-.05436-.26257.07057-.428-.01414l.10456.06756-.2464.34886c.17543.02242.2629.14448.40179.241L1.79856,4.346c-.0462.47.704.75622.84423,1.07559C2.563,4.90435,2.99157,5.46672,2.58668,4.77965Z" style="fill: #1d1d1d"/>
        <path d="M2.46151,3.77485l-.0158-.011Z" style="fill: #1d1d1d"/>
        <path d="M48.59845,25.00625a.24932.24932,0,0,0,.091-.27255l-1.472,1.15493c.11508.05245.62567-.1688.38245.10511.20286-.00081.52384-.38483.48709-.54767l-.00222.218c.2059-.43749.70234-.27864.55978-.00417l.02725-.0241.42532-1.39792C48.72094,24.46825,49.00858,24.674,48.59845,25.00625Z" style="fill: #1d1d1d"/>
        <path d="M79.19341,1.75626c-.1675.17954-.16606.22992-.11893.24571A.99355.99355,0,0,0,79.19341,1.75626Z" style="fill: #1d1d1d"/>
        <path d="M49.19606,23.91058l.13345-.43765A1.28608,1.28608,0,0,0,49.19606,23.91058Z" style="fill: #1d1d1d"/>
        <path d="M49.61234,28.66627a.07043.07043,0,0,0,.03172.03253l.04988-.20949-.00344.00266Z" style="fill: #1d1d1d"/>
        <path d="M55.28938,17.91738l.08559-.08993A.61148.61148,0,0,0,55.28938,17.91738Z" style="fill: #1d1d1d"/>
        <path d="M46.53644,32.967l.501-.71078c-.01385.16279.28084-.112.22839.10615.0383-.054.24374-.2741.14188-.273l-.12935.11015c.13165-.54525-.16053-.48829.25-1.145-.48387.11325-.52348.3848-.61451.65727a2.03429,2.03429,0,0,1-.14213.17191l-.24585.81053Z" style="fill: #1d1d1d"/>
        <path d="M71.26266,10.43929l.00951.02706A.03406.03406,0,0,0,71.26266,10.43929Z" style="fill: #1d1d1d"/>
        <path d="M71.31225,10.57719l-.04008-.11084C71.27116,10.53783,71.16909,10.68542,71.31225,10.57719Z" style="fill: #1d1d1d"/>
        <path d="M49.22671,24.17374a.4865.4865,0,0,1-.03065-.26316l-.099.32733A1.33885,1.33885,0,0,1,49.22671,24.17374Z" style="fill: #1d1d1d"/>
        <path d="M49.19445,25.16641l-.52266.46942-.09246.30182C48.74894,25.71885,48.96764,25.48923,49.19445,25.16641Z" style="fill: #1d1d1d"/>
        <path d="M54.28946,18.43441c1.11287-.93335-.02884.54385.55856.21277.28844-.28569.28079-.527.44136-.7298-.80623.83854-.272-.60394-1.12483.19062-.08679-.38051.42444-.81811.79419-.98443.56105-.0049-.1544.43615-.02922.76172.33381-.32978.23092-.32831.27043-.59966.626-.38674.9378-1.25971,1.57254-1.155.37188-.38446.24439-.49161.37454-.82028-.17592-.32494-.73911.33245-1.07024.22627.051-.00069.15135-.00066.16462.05382l-.40852.2204c.42109-.16633.176.32474.01016.48989-.12854.10984-.38383.32865-.40915.22077l.15373-.219c-.33063.11131-.4102.656-.80595.71354-.06465-.05348.01551-.16471.00024-.21687a5.26752,5.26752,0,0,1-.80753,1.14789l.042-.49055c-.11856.599-1.013,1.15058-1.71417,1.42834.10108-.00095.24176-.05576.216.0526-.28276.32922-.68849.33064-.64992.05945-.14371.49185-1.40436.77233-1.6121,1.42749l-.92665,3.04856a1.10749,1.10749,0,0,1,.18328-.26826c.38143.10514.45856-.00343.3149.48732.21833-.38242-.061-.48822.41368-.87409-.09125.27339.08452.59814.57.26818.96139-1.14954,1.17371-2.45776,1.97041-3.66152.19.162.99565-.55133,1.443-.8264a1.44144,1.44144,0,0,1-.54067.91515l.81789-.59153Z" style="fill: #1d1d1d"/>
        <path d="M52.10941,21.1711a.48268.48268,0,0,0,.11754-.03352A.20258.20258,0,0,0,52.10941,21.1711Z" style="fill: #1d1d1d"/>
        <path d="M53.58279,19.58241c.0017.01045.00752.01506.01226.024l.08914-.09313Z" style="fill: #1d1d1d"/>
        <path d="M49.83649,24.3988c-.02555.10867-.06443.16348-.08986.27231.0276-.05161.069-.10784.10721-.16407C49.8821,24.44313,49.88491,24.39889,49.83649,24.3988Z" style="fill: #1d1d1d"/>
        <path d="M49.34135,24.23926l-.0251-.10792-.08954.0424A.099.099,0,0,0,49.34135,24.23926Z" style="fill: #1d1d1d"/>
        <path d="M60.02556,16.7753l.07717-.1274C60.03913,16.70261,60.02384,16.74174,60.02556,16.7753Z" style="fill: #1d1d1d"/>
        <path d="M55.8208,17.76975c-.38389.32857.17638.325-.38626.76493l.17921-.11106A9.26564,9.26564,0,0,1,54.0775,19.7414c-.03511-.157-.40014.087-.48245-.135a1.74449,1.74449,0,0,0-.61664.90557c-.25037.09793-.4336.50037-.75146.62557.19307.02283-.08484.65111.44239.02954-.03942.05428.01163.054-.02674.10833.52237-.16535.48681-.54668.83357-.82192.29151-.05613-.20824.43734.02215.32671.35928-.43839,1.46891-.93667,1.12864-1.31457a.58976.58976,0,0,1,.55971-.22144c.17056-.81721,2.00649-1.26676,1.57788-1.80847a3.06656,3.06656,0,0,0-.6528.711Z" style="fill: #1d1d1d"/>
        <path d="M50.48388,23.85037c.02658-.01637.05774-.0437.08175-.05478Z" style="fill: #1d1d1d"/>
        <path d="M44.2265,26.18064l-.11071-.48624a26.68457,26.68457,0,0,1,2.12231-1.64889c.10127-.00053.02466.10871-.01409.16418a11.267,11.267,0,0,0,1.77914-1.59281c.18776-.14152.76308-.40708.66024-.15888a.87349.87349,0,0,1,.25789-.282c.12734.107-.20382.21742-.1281.32708.089-.05544.14039-.05552.12793-.11063-.05284.218.48183.323-.17064.81727-.4829-.10489.42113-.3833.0166-.59868-.216.16447-.09169.273-.07867.32747-.27888.205-.33628.11634-.38044.02957-.02486.184-.47924.30841-.50276.57638-.51108.43863-.164-.27058-.508.0029l.0603.49016-.62576.38536c-.74336.76691.569.48532-.23812,1.41657-.01039-.27214-.62126-.26795-1.11969.00769.25619-.219.57778-.81892.99806-.98646-.68735.11409.64117-.549.1569-.65382a1.75927,1.75927,0,0,1-.88255.822l.07793-.11007c-.35811.22155-.33624.76592-.89619.987-.21828.187-.2494.05941-.27032-.04972C44.40512,26.05534,44.28462,26.2542,44.2265,26.18064Zm.43924-.454.329-.20267A.50742.50742,0,0,0,44.66574,25.72662Z" style="fill: #1d1d1d"/>
        <path d="M6.8609,8.034,6.79,7.93518A.25663.25663,0,0,0,6.8609,8.034Z" style="fill: #1d1d1d"/>
        <path d="M33.67168,29.08975l-.16709-.14755A1.064,1.064,0,0,0,33.67168,29.08975Z" style="fill: #1d1d1d"/>
        <path d="M28.87075,27.1297l-.31725-.12143A.717.717,0,0,0,28.87075,27.1297Z" style="fill: #1d1d1d"/>
        <polygon points="8.937 9.685 8.944 9.695 8.998 9.708 8.937 9.685" style="fill: #1d1d1d"/>
        <path d="M21.57418,20.19925a.6388.6388,0,0,0-.08572-.18479C21.47,20.05308,21.50491,20.11833,21.57418,20.19925Z" style="fill: #1d1d1d"/>
        <path d="M28.92924,27.15188l-.01063-.01835-.04786-.00383Z" style="fill: #1d1d1d"/>
        <path d="M34.649,31.41569l.13822.05428A.385.385,0,0,0,34.649,31.41569Z" style="fill: #1d1d1d"/>
        <path d="M35.13893,30.27488a.63973.63973,0,0,0,.13509.05172Z" style="fill: #1d1d1d"/>
        <path d="M43.47387,34.26685l.38381-.3755A2.44106,2.44106,0,0,0,43.47387,34.26685Z" style="fill: #1d1d1d"/>
        <path d="M35.59451,30.98033a.41114.41114,0,0,0,.072-.017C35.62577,30.94839,35.59483,30.956,35.59451,30.98033Z" style="fill: #1d1d1d"/>
        <path d="M6.13395,5.86845l.01526.01.03623-.03428Z" style="fill: #1d1d1d"/>
        <path d="M5.18017,5.90859l-.22923-.13387A.77624.77624,0,0,0,5.18017,5.90859Z" style="fill: #1d1d1d"/>
        <path d="M18.55833,16.99025c-.025-.09709-.12685-.26922-.01532-.2711C18.36882,16.6958,18.24517,16.87131,18.55833,16.99025Z" style="fill: #1d1d1d"/>
        <path d="M8.9149,4.67082a.87025.87025,0,0,1-.22.01154C8.82031,4.70164,8.92837,4.72107,8.9149,4.67082Z" style="fill: #1d1d1d"/>
        <path d="M8.69485,4.68236,8.508,4.65809A1.0836,1.0836,0,0,0,8.69485,4.68236Z" style="fill: #1d1d1d"/>
        <path d="M22.31,15.45219a.14013.14013,0,0,0,.03517.10405A.06767.06767,0,0,0,22.31,15.45219Z" style="fill: #1d1d1d"/>
        <path d="M4.82476,5.59058c-.09915.05065-1.13715-.47839-.40926.15323-.2222.22523-.57662-.26423-.827-.36031.10185.17264-.197.10241-.22147.226a1.08766,1.08766,0,0,1,.45114.21631c-.01187.1728-.32369.05382-.48756-.14152.14048.3196-.46061-.04239-.19561.32483a4.48155,4.48155,0,0,0,2.18745.83407,4.08178,4.08178,0,0,1-1.25484-.92146l.31121-.1028c.24062.49021.5894.53539.955.85172l-.76752-.7798c-.262-.49065.03818-.32306.38458-.11612C4.87533,5.71155,4.815,5.64391,4.82476,5.59058Z" style="fill: #1d1d1d"/>
        <path d="M6.86686,4.1552l-.00965-.01726a.20367.20367,0,0,0-.05294-.00639Z" style="fill: #1d1d1d"/>
        <path d="M41.68562,28.68456l-.006-.12559A.26911.26911,0,0,0,41.68562,28.68456Z" style="fill: #1d1d1d"/>
        <path d="M6.56877,5.59239l-.00066-.00051C6.57572,5.59406,6.57711,5.59514,6.56877,5.59239Z" style="fill: #1d1d1d"/>
        <path d="M40.99524,28.873l.00676-.02426Z" style="fill: #1d1d1d"/>
        <path d="M39.32058,35.00038a.17123.17123,0,0,0,.013.05678C39.40826,35.09592,39.3769,35.05545,39.32058,35.00038Z" style="fill: #1d1d1d"/>
        <path d="M40.99129,28.90205l.004-.0291Z" style="fill: #1d1d1d"/>
        <path d="M32.69715,23.717a.58249.58249,0,0,0,.016.12872C32.74579,23.83913,32.74678,23.80246,32.69715,23.717Z" style="fill: #1d1d1d"/>
        <path d="M34.20634,25.40067l.01367.04863Z" style="fill: #1d1d1d"/>
        <path d="M18.22169,18.28022a1.27645,1.27645,0,0,0,.216.14972A.87579.87579,0,0,0,18.22169,18.28022Z" style="fill: #1d1d1d"/>
        <path d="M41.002,28.84869a.519.519,0,0,1,.0428-.08719A.42217.42217,0,0,0,41.002,28.84869Z" style="fill: #1d1d1d"/>
        <polygon points="29.176 22.719 29.248 22.738 29.224 22.702 29.176 22.719" style="fill: #1d1d1d"/>
        <path d="M28.382,21.84836a.44229.44229,0,0,0,.119-.02265c-.39655-.165-.92218-.72937-1.17091-.55645.11546.08067.58661.66249.38438.72.27249.12019.48506.54254.637.60054-.27718-.41609.10938-.22423.42211-.10473.178.24545-.18619.15012-.02118.34635l.55151.38835-.43983-.39043.31161-.11022-.0636-.01577C28.249,22.196,29.29575,22.32993,28.382,21.84836Z" style="fill: #1d1d1d"/>
        <path d="M28.501,21.82571a.5275.5275,0,0,0,.16759.04363A.18787.18787,0,0,0,28.501,21.82571Z" style="fill: #1d1d1d"/>
        <path d="M25.5806,18.97318a1.50532,1.50532,0,0,0-.16582-.073Z" style="fill: #1d1d1d"/>
        <path d="M48.158,26.20707c-.064-.054-.62431.16786-.48478.33044l.45051-.26515Z" style="fill: #1d1d1d"/>
        <path d="M16.09426,13.17115a1.27793,1.27793,0,0,0,.14955.12326l.0501-.00309C16.28214,13.24226,16.1574,13.19492,16.09426,13.17115Z" style="fill: #1d1d1d"/>
        <path d="M27.51165,21.959a.33124.33124,0,0,0,.20285.03031A.32154.32154,0,0,0,27.51165,21.959Z" style="fill: #1d1d1d"/>
        <path d="M16.3778,12.74741a.5744.5744,0,0,1-.029-.32144c-.13146-.10457-.29342-.08839-.453-.16173A1.33874,1.33874,0,0,1,16.3778,12.74741Z" style="fill: #1d1d1d"/>
        <path d="M15.88251,12.25881l.01333.00543Z" style="fill: #1d1d1d"/>
        <path d="M48.48542,26.06743l.09391-.12978-.0282.09414.35412-.193a.99815.99815,0,0,1,.10843-.12746.10332.10332,0,0,0-.013.07786l.116-.05856a12.75735,12.75735,0,0,1,.73711-1.22361,2.73719,2.73719,0,0,1,.63-.65667c-.17179.128-.36889.33774-.22628.38195.42155-.16625.81393-.00591,1.21257-.71584l-.34456.27384.48946-.98269c.39481-.05709-.24434.4905-.24764.71.46368-.65747,1.35335-.5562,1.38228-1.1003.18946.16176.50608.43157.88994.10245-.45834.0037.12919-.327-.28952-.37886.05192-.21747.49876-.27639.40946-.43858l.02481.10891c.918-.22437.76906-.87571.938-1.25944.754-.7125,1.22527-.87895,1.86488-1.4283.12646.10871.58361.323.83987.10225-.01183-.27114.527-.81973.41419-1.09143-.54951.27735-.24423.491-.48887.76542-.42008-.04988-.2021-.2154-.63561-.10326.3329-.11244,1.08839-1.04251,1.54637-1.04549l-.07724.1096c.56181-.22244,1.07986.26309,1.58214-.66521l.25741-.4201a.35359.35359,0,0,0,.02439.091c.614-.44007.6492-.059,1.15087-.77143-.03881.05507.0123.05491-.02755.11016.47251-.1661.6543-.7126.89678-.98579.318.05191.10175.2156.09972.43386A4.12011,4.12011,0,0,0,63.581,13.79244l.51042-.22112c-.19232.27314-.34745.70953-.18284.76248.20483-.21915.09081-.27242.44951-.49355a2.14916,2.14916,0,0,1-.05445.65346c.83907-.33228-.17636-.54218.58711-.54811a.46893.46893,0,0,0,.11731-.59858l.53608-.114c-.09946-.21718.37287-.60154.66629-.87425-.02309-.109-.40588.00141-.47.16524-.08867-.16254.19358-.49106.41139-.65562.37832.32354,1.36773-1.15271,1.4657-.501.87062-.878,2.20018-1.97453,2.71408-2.6321.29338-.05745.727-.386.61-.00526.78054-.60434.87517-1.312,1.73037-1.80817.10155-.00151-.34691.27537-.21952.3824.38544-.54747,1.04666-.55211,1.75077-1.26519a.24967.24967,0,0,0-.09046.27323c-.06331-.05312.21842-.38231.37312-.60206.13985-.05555-.11589.16436-.01381.16352,1.66067-.99116,2.40788-2.41239,3.92852-3.56677-.43442.32948-.39878.71093-.32213.81892l.42514-.32321c.06349-.25364.38035-.49942.57086-.80067.06983.02272.23873-.02579.15414.13653C80.26225,1.74891,80.16735.66112,81.29106,0l-.8359,1.4755.4451-.05864-.36151.65643c.43434-.11122.463-.65682.65235-.49389-.02607.108-.20491.21889-.129.32731.37041-.16663.28287-.32975.4879-.54949-.31143.87312-1.526,1.80807-2.10241,2.41078-.0784.11063.0139-.16308.001-.21708-.25564.21952-.51035.221-.79179.54944-.07861.32754.25348-.00109.432-.11172.08962.16207-.00006.21793-.16684.38222-.18973-.16156-1.06091.71559-1.48047.66437-.93377.82346.54483.37692-.47782,1.03792l-.45746.00213a6.97561,6.97561,0,0,1-1.69062,1.75515l.127-.11026c.015-.16285-.17609-.10748-.2783-.10565-.54881.27541-.76782.8753-1.22749.87864a14.91528,14.91528,0,0,1-1.65477,2.13569c-.39337-.16077.61688-.87561.73362-1.25775l-.56351.43981a1.21674,1.21674,0,0,0,.47808-.82075c-.53656.33056-.50122.71162-.91271,1.15-.02513-.10746-.12552-.10749-.34352.0585l.08863.24068c-.01621-.0126-.05147-.00856-.12783.03107l-.74264.76647c.24138-.05489.3806.10642.59778-.05893-.16436-.05264.001-.21712.219-.38188-.091.27288.293-.05727.36942.05045a9.83508,9.83508,0,0,0-1.18992,1.04336l-.23028-.10606c-.447.2754-.805.71306-1.12473.87866l.01452-.16312a6.97923,6.97923,0,0,1-1.508.9912c-.283.54591-.70663,1.14689-.9018,1.63962-.01434.37935-1.5178.71829-1.76391,1.42774-.05259.00144.20733-.438.30946-.6568-.35833.2216-.39949.71136-.69083.55054.80512-.49608-.18963-.16162.09129-.49017a3.11337,3.11337,0,0,0-.77995.82178c.561-.439.05979.48916.54735-.05874a3.70919,3.70919,0,0,1-1.40893,1.42557c-.07578-.10823-.17845-.10648-.40783.00293l-.04058.274c-.26735.1637.33653-.5487-.20055-.21762-.30843.65474-1.64825,1.04656-1.49954,1.69809-.53514.1132.59017-.76591-.17486-.54195.20618-.43745.82961-.60494.75615-.93089-.28078.32755-.27865-.1071-.49577.058l-.25769.4366.08939-.05489a12.49068,12.49068,0,0,1-2.2906,2.031A5.99852,5.99852,0,0,1,56.90656,22.984c.12959-.327-.77853.38755-.46946-.26755-.47174.16709-.7273.6024-.65364.71227.35775-.22083.14211-.05668.45968-.22168a1.34114,1.34114,0,0,1-.76779.65847c.08942-.05485.03927-.0548.02667-.10841-.45989.22141-.09107.27244-.33469.54652-.22781-.1066-.66533.44146-.9964.552l-.1808.54541c.0782-.3269-.40832.22032-.58632.11393-.17951.327-.24656.70854-.69277.98409.10272-.21871-.47275.16713-.61064.00465-.8301.38713-.81062,1.36648-1.66545,1.64482-.00992-.05556.03885-.27085-.1892-.1614a4.97548,4.97548,0,0,1-.55181.50217l.00145-.00874-.00489.0114c-.07338.07177-.10782.13194-.07816.1743a3.49514,3.49514,0,0,1-.613,1.23517c.19046.161.59991-.27759.7543-.49691l.0272-.32626c.39316.1605.46042-.43875.66385-.44-.06742.59905-1.08955,1.25953-1.50069,1.91548a3.98076,3.98076,0,0,0,1.99175-1.10341l-.38241.11212.34475-.27411-.49572.0569c.35716-.22025.601-.494.90768-.71381-.34547.27469-.68786.11461-.45793.00338.53519-.11312.30867-.4381.61452-.65727-.179.11092-.39634.27484-.34351.05685.765-.224.80613-.49731,1.53054-.66416-.31589-.27006.63984-.5494.51509-.87442l-.26789.1652.373-.60138c.68683-.11426-.22062.59949.65881.21246.70379-.49564.424-.81917.93826-1.25913a1.90635,1.90635,0,0,1-.759,1.14865l.332-.111c-.05224.21741-.66578.65756-.97182.87732.32122-.60039-.282.11168-.63835.1146.10222.21619.39508-.05793.13756.37923a4.48319,4.48319,0,0,1,.88278-.60564c-1.02418.66239-.36576,1.30955-1.32334,1.80588.32128-.38331-.341-.16083-.45687-.214a7.57468,7.57468,0,0,0-.61436.65747l.34393.1592c-.39859.49416-1.00575.063-1.35548.77486.05063.21607.53707-.33109.45964-.22173-.64024.76622-1.25078.55365-2.0904.88541a.71378.71378,0,0,1,.03268.59886c-.04913-.21819-.2896-.16211-.1114-.4883-.281.11045-.46085.4382-.61419.65734.54869-.27672-.01646.38068-.02975.54454-.26769.16461-.04874-.21767.067-.38191-.23112.11121-.64926.05895-.57577.38545-.13846-.162.20936-.87261.54264-1.2014l-.26851.16524c.10378-.21835.15443-.21892.42042-.38371-.3417.05665-.42975-.10544-.4669-.26879.05065.00008.01342.05348.06227.05413.231-.11108.34691-.275.23156-.32868.00232-.364-.38405.0721-.60548.06385l-.26663.27988-.46355,1.524c-.37344.42558-.70569.40558-1.1205.55253l.0603.26423-.42781.29272a2.7948,2.7948,0,0,1-.40316.22708c-.21859.09212-.30937.03958-.18562-.25361.065.0534.13927-.02926.2843-.12691a.26471.26471,0,0,1,.04754-.13376l.007-.0596-1.0741,1.01285c.98589-1.21807-.14381-.453-.13281-1.01321l-.98777.948c.68174-.35522.07673.20991-.15121.462-.11674-.21939-.87252.68133-1.26892.946l.02626-.084a2.05627,2.05627,0,0,0-.243.14053,7.69106,7.69106,0,0,0-1.16384-.8498c.01323.11435-.65.10559-1.039.10874.81533.75048.29583.47063.32119.6829-.08754-.08568-.24952-.21527-.2779-.19787-.14738-.02632.14512.23041.1499.33705a11.65465,11.65465,0,0,0,2.00962,1.1707,2.6293,2.6293,0,0,0,.30513-.46386.49976.49976,0,0,0-.30513.21071.8532.8532,0,0,1-.47533-.28676,1.37925,1.37925,0,0,1,.47533.18343,13.62762,13.62762,0,0,1,1.266-1.0239l.284.03909.72171-.70212c-.28.35508-.02169.42585-.83584,1.11112.14788.1298.80866-.68455,1.32733-1.00563l.14777-.45993c-.04389.22624,1.05031-.58745.37439.2003l-1.20992,1.223.42148-.09221-1.12205.939.23972-.365c-1.45185,1.324-.9226.33248-1.61455.87144a5.4093,5.4093,0,0,0-.70368-.44209c-.58146-.03433-1.241-.50238-2.32813-1.44974.8301.55231.1661-.165.5282-.125A3.26187,3.26187,0,0,0,37.11094,33.77c-.11378-.30916-.16991-.53326.50891.02681.26828-.25342-.94569-.65538-.78744-1.00812-1.29885-.99583-1.76311.16538-2.955-1.356l.148-.07647c-1.051-.57855-1.47956-1.141-2.41889-1.72042l-.44543-.83443c.18887.07188.77555.16361.69814-.13178.09268.56537.52816.73175.75731,1.17472.0986-.05165-.00192-.22262-.027-.32116.21346.1705.21447.3926.54088.56074.03543-.074-.2159-.39212.04748-.24741l.24026.49069c.5887.31289.60769-.25456,1.14918.30589a1.33916,1.33916,0,0,1-.93324.00259c.24987.25291-.4503-.18639-.27489.112.5955.06153.63486.41023,1.28977.668a.484.484,0,0,1-.28756-.06408l.69139.70686c-.07761-.295.76388.33613.861.0628-.75426-.731-.61415-.41142-1.45751-1.26522a1.89174,1.89174,0,0,0,1.13815.12428.10168.10168,0,0,0,.03549.05882c.31086-.10352.20951-.27513.50478-.64907-.63684-.066-.75227-.509-1.37768-.74835-.25525.13194.08924.49079.38183.63315l-.55158-.21.16136-.02653-1.077-.94861a.762.762,0,0,0,.57026.08978,1.892,1.892,0,0,1-.34909-.46751c-.1207.22175-.24886.3446-.38826.23018a2.91829,2.91829,0,0,1-1.05225-1.537l-.09556-.052c-.03471.29636-.79835-.03958-1.18385-.00906.17311-.19969-.27783-.4166-.40469-.68614a.87015.87015,0,0,0-.30178.99189c.66174.16422.44695-.00591.92064-.13534l.95.40706-.32467.05338c.32843.39045.90262.43288.68074.65855-.3367.00348-.60236-.36406-.93783-.3588l.19.29336c-.64928-.11368-.053-.41805-.74181-.68077.04081.36992-.06221-.02412-.41064-.06807.07717.2957,1.02679.70185.58086.93019-.41121-.06851-.64722-1.17727-1.30721-1.11881l.05034-.026a1.62348,1.62348,0,0,0-1.1982-.47115c-.15017-.30293-.60908-.39771-.87972-.58734l.08753-.09941-.40162-.24208c.32291-.054.42687.34.76413.55788l.11134-.22422c.18519.513.69966.35251,1.11179.405-.54125-.15185-1.12319-.94973-1.51421-.64608l-.102-.39335-.17658-.02381c-.07513-.29412.29726-.374.69844-.13218.02577.09846.03882.14756-.01193.17289a1.31,1.31,0,0,1,.88884.38269l-.29986-.0685a2.175,2.175,0,0,0,1.35164.64772A22.68212,22.68212,0,0,0,28.44928,25.109a8.32493,8.32493,0,0,0-1.40136.65965,4.31584,4.31584,0,0,1-1.49277-1.18971l.09933-.05089a1.34841,1.34841,0,0,0-.55287-.38777c-.12613-.2693.31032-.10368.20955-.27485l-.77506-.38377c.18442-.15206.74806.28487,1.02551.47973-.06252-.02372-.18819-.07224-.17462-.02229.252.31772,1.07508.45457,1.00381.82675.18757.07151-.46047-.04291.04152.37a.46527.46527,0,0,0,.66116.16326c.08685-.1-.42775-.56213-.14112-.54083-.27757-.1947-.48852-.14315-.7522-.50953.27477.19341.79921.26156.81426.53334.67509.21293.98059-.33491.75472-.55414-.06059.19921-1.1027-.554-.57139.18024a7.69945,7.69945,0,0,1-1.5262-.67041l.049-.02521-.53947-.34048c.11311.0003.30076.07155.38653-.02846l-.91148-.26026c.5368.116-.14078-.31869-.25415-.53987-.1984.10179-.56047.00783-.3713.30138.2024.34325.2373.04615.51284.2406l-.5723-.04114-.01307-.04975-.38688.02976c-.50153-.41352.59618-.30429-.21755-.61408l-.13272.34707c-.72874-.633-1.46042-1.70864-2.09854-1.99739.27237-.04427.5374-.25012.45176-.5607a5.90579,5.90579,0,0,0,1.02086.81308c.02556.09906-.67341.00868-.98757-.33273-.18226.5956,1.12439.42907.80469.92779.79385.87838,1.0354.08522,1.60393.96623.17266-.19978.30115.071.48483-.0804.03268-.51918-1.05336-.80061-1.4679-1.31352.06146.02341.18547.07.23555.04587a1.71451,1.71451,0,0,0-.81393-.53259l.01289.0493c-.60024-.14085-.153-.36807-.34205-.66207-.125-.04753-.44018-.38912-.50066-.19122l-.31775-.56425-.158.25c-.27649-.19323-.21539-.39192-.56634-.43784l-.17277.19907.60424.58575c-.38757-.19227-.24813.12665-.64975-.116.58762.09221-.201-.34123-.09142-.56565l-.36158-.09325.11232-.00172c-.1291-.27205-.31287-.11916-.53952-.33906.20213.34309.27982.63812.767.77993a5.66025,5.66025,0,0,1-1.13761-.4783c-.35237-.13424-.42783-.44729-.676-.67775.57594.31413.31127-.76959,1.21923.17638-.04988.02505-.12587-.04842-.13893-.09785-.07008.37184.6268.461.92787.532.06176-.19736.32349-.05474-.00456-.44535.05305.19834-.5967.0829-.87382-.33377l.32046-.27594-.51534-.46265.063.02429c-.04121-.37041-.61346-.412-.89258-.82791-.362-.09408-1.32993-.99575-1.1486-.30544-.17788-.46695-.67662-.43606-1.07846-.67819l.35452.49017c-.72415-.18723-.45033-.21719-1.17382-.182.02577-.12362-.01381-.27221.14765-.298-.71485-.58335-1.68273-1.48477-2.31824-1.5491-.50239-.41325-.28314-.86131-1.12092-1.27024-.18761-.0718-.11971.39791-.5234-.067-.01321-.04922.64773.1145.09668-.27274-.57409-.04222-.78012-.82982-1.44193-.99411-.18913-.29275-.66659-.60883-.41766-.73518a2.87876,2.87876,0,0,0,1.15368.75012c-.15026.076.20211.344-.173.20072.50463.63446.4996.1904.97753.72727.10058-.05-.11543-.44346-.29045-.46524.20893-.27406,1.20243.724.96016.01214-.5779-.48717-1.19609-.05753-1.49012-.74579.336-.00456.55084.38752,1.03625.30637l-.33952-.43955-.46117-.043.04955-.02581c-.55622-.83231-.91161-.25923-1.68855-.64479.24185.49117-.45679.40187-.25441.74516-.47563-.3144-.77708-.60679-.56832-.88129,1.012.43086.27152-.25092,1.25855.08134-.05155-.19655.49454-.25464.05548-.64435-.67216-.211-.02039.34784-.61006.03368-.01182-.04815-.02448-.09758.02468-.12338-.349-.0444-.23929-.26786-.65-.33646l.111-.00122c-.22812-.4426-.53564-.11625-.70282-.53478-.03418.29734-.33482.00527-.62323-.01678.25174.3184.19476.73926.82128,1.20064.19839-.10212.22256-.2257.53473-.10683l-.41417-.291c.10652.04078.204.05072.30786.08011l.319.3808c-.57477-.26374-.48483.0804-.82042.08583-.3905-.4156-.4012-.24144-.6403-.511.21026-.21241-.54634-1.06708-.94115-1.61614.0724.071.1797.14481.23047.19393.48719.14115-.104-.39448-.06756-.46964l-.3622-.09362c.06355.02358.17657.02382.08674-.09925-.40089-.24184-.56031.00713-.96077-.23392.07274-.15031.535-.10553.35981-.35029a.93445.93445,0,0,0-.58364-.93235c-.07306.02267-.22078-.04768-.38358-.14027a.24366.24366,0,0,0,.07152.0216l-.214-.392c.44679-.00605.47654.537.92533.53122l.18619-.1909a1.53466,1.53466,0,0,0,.79794.3001,3.30087,3.30087,0,0,0-.81391-.53212c.05145-.1723.38656-.06929.43487-.05458l-.14748.07659c.30331.51407.81108.30881,1.32621.77173.07572.07263.01342.049-.03581.07452.59915.14056.81626.75538,1.45348.82155l-.22573.00148c.36146.13821,1.093.37646,1.81869.62134l.0681-.078c-.02535-.09831.1868.07117.276.19372l-.00146.0007.9883.35186a.74448.74448,0,0,0-.18875-.31381c-.16389.02608-.62763-.46029-.72431-.18736-.14057-.31948-.6773-.43518-.79129-.6559.21571.39185-.38524.02934-.53522.10493C9.84644,7.15338,9.36012,7.012,9.546,6.8606c-.02669-.09777.064.24621.288.243.4733.09229-.50439-.63478.04587-.46908-.63894-.28907-1.30436-.89688-1.99168-1.15877l.25213.31705c-.22575-.21888-.8417-.632-.81614-.755.20008.12114.41269.29.67606.43543.17314-.19922-.56468-.43712-.49093-.58587L6.56,4.702l.28937.24372c-.2862-.01983-.79153-.65761-1.23127-1.04646.487-.07865.70346.53515,1.27886.79926.43746.16684-.00437-.44475.38319-.25281a.5561.5561,0,0,0-.42291-.30773l-.0917-.15435c.49978-.02684,1.12376.5512,1.74249.6745a.30731.30731,0,0,0-.15332.02075A2.67423,2.67423,0,0,0,9.35844,5.504a.47016.47016,0,0,0-.35074-.26674c.03709-.07364.37418.1441.54877.16593-.25223-.31726.06082-.19783-.10268-.39364a1.783,1.783,0,0,1,.62616.46066c.05182.19738-.21072.05244-.284.20064.314.12077.19156.51792.67871.65912-.45283-.43874.34742-.17783.58481-.13129l-.076-.07347q.41077-.04245.41329.29093c-.25045-.096-.41329-.29093-.47449-.09328a2.05463,2.05463,0,0,0,.46456.26646l-.22356.00324.68967.485a3.64748,3.64748,0,0,0,.78079-.234c.06443.24621.36558.31724.55328.38809l-.11391.00123c.20365.34333.93089.7544,1.07877.6778.12669.26942-2.0716-.392-.50477.64907.56385.43666.64689-.10835,1.07062.00994a.06826.06826,0,0,0-.0358.07452c.22475.21931.36205.09382.61233.18983a.71438.71438,0,0,0-.42673-.34021c.19811-.10158.50224.41312.78871.43429-.436.05507.40327.46405.115.44231a1.95289,1.95289,0,0,0,1.44025.77117c.09281.56673.615.41238,1.04359.97474-.07583-.07367-.26228-.14443-.35252-.26781-.45963-.04366.47938.53736-.13287.34777.125.04818.08791-.09822-.03995-.14812-.19865-.11927-.43647-.16645-.46008-.04191l.30532.51487-.1903-.07205.48132.75828c.04864-.02514.02408-.12278.011-.17221.69213.70725,1.68083,1.26229,2.33419,1.82158.55633-.45253,1.85312,1.062,2.66456,1.14943-.26994.044-.56738.26069-.56573.4461-.14031-.07181-.56381-.04347-.80472-.30537.02463-.123-.23971-.48937.0594-.41942-.81488-.53256-.08448.32245-.4701.35193a10.27232,10.27232,0,0,0,2.27579.95705l-.037.07558.50025.19142c-.302-.29366-.0426-.59356.29837-.153l-.06374-.02487c.14083.32032.76636.55906,1.13012.87443l.39794.01937c.36413.31624.11869.66554.08561.96316a3.77433,3.77433,0,0,0,1.68671.6438c.07718.2957.94261,1.0244.33129.83478.63806.28851,1.14128-.58232,1.72414.57023l-.34946-.04431a18.197,18.197,0,0,1,2.67035,1.81627c-.72065.25576.69822,1.37369.467,1.99432.045-.148.40558.07155.50119.04817a.30373.30373,0,0,0,.31186.26248c-.26572-.36747.64431-.33-.16925-.63961a2.34963,2.34963,0,0,1,1.94968.56612l-.17288.19955-.527-.51146c-.06124.19889-.34888-.04336-.52545-.06718.98106.95069-.51916.378.59792,1.2031.21075-.05247.09892-.0502.42532.11794-.13939-.09725-.27493.02733-.06114.1979l.33635-.00472c.11306.64431-.80908-.2669-.67217.23083-.55026-.1657-1.35111-.64839-1.42114-.27664.61621.6337,1.0085-.01379,1.63735.66868l-.011.17286c.31406.12066.49758-.03058.72259-.03282-.03733.07395-.01023.17237.13853.31789.63718.06639.96282.23551,1.58557.25154-1.224-.60035-.74272-.90386-1.982-1.55448.23755.04633,1.05249.57831,1.323.32754l-.17222.20057a3.08212,3.08212,0,0,1,1.26537.74836l-.36229-.09368c.7014.31287.73276,1.07706,1.46682,1.09167a1.265,1.265,0,0,0-.41366-.29046,3.3888,3.3888,0,0,1,1.04092.75072l.9488.186c-.08629.09866.34058.4407.00409.44359a1.17234,1.17234,0,0,0,.14216.173.18032.18032,0,0,0,.06288.05446.2308.2308,0,0,0,.153.01427c.10607-.02054.20552-.08835.26861-.08065.07852.41564-.20732-.00319-.43075.28435.27189.36638.7076.56524.88135.39994a.41936.41936,0,0,1-.063-.25526c-.0037.10259.11067.16417.1714.21463l.03951-.17216.00248-.01618c.09245.07487.098.19843.00156.43723.12214-.05293.1958-.52775.3398-.32658a.82537.82537,0,0,1-.34384.39915c-.0707-.058-.12976-.09954-.17385-.07073a.35826.35826,0,0,1,.17385.10889c.22912-.1045.415.31822.87945-.27162.04292.07037-.0083.312.12089.21445.26634-.28706-.0833-.38258-.08859-.61968-.13169.23727-.27472.21612-.42732.06091l-.001-.1758c.028.06976.12458-.0001.1815.0438l-.08938-.28944c.10329.31694.39367.39407.47575.18165-.259-.08664-.21186-.10849-.42122-.39818-.02035-.19864.04973-.14787.14039-.11623a.50155.50155,0,0,0,.46278-.38578c.02607.10749-.34581.492.06277.272.30737-.22175.11752-.38365.27017-.60117-.06555.38174.11164.49.05719.92507-.47965.41475-.30872.23578-.51.5367a.92217.92217,0,0,0,.4195-.04633c-.12037.10707-.1426.15477-.15134.20159a.24071.24071,0,0,0,.00786.13546c.02748.08245.09042.14642.10632.19736a.74753.74753,0,0,0,.20078-.08082.81821.81821,0,0,0,.17095-.1433.55044.55044,0,0,0,.1304-.28051.59264.59264,0,0,1,.28794-.52561c.12834-.32694-.48642.33052-.22865-.10766.48591-.32949.00073-.21675.45016-.70991l-.01321.16229c.25394-.00082.29339-.27377.46081-.43741.1533-.21954-.78628-.53929.03312-1.19881a.30256.30256,0,0,0,.03627.16137l.53766,2.36275a29.17432,29.17432,0,0,1,2.90924-2.0056c.49292.16038-.47806.82009-.29976.92637l-.4982.27628c-.08685-.16308.89639-.76843.29769-.71017-.70429.71334-1.18872.82518-1.70276,1.70012.49526.15969.93339-.82279,1.62168-.93685a1.69839,1.69839,0,0,0-.492.485l1.56948-.99164.05232-.17249c-.37823.23308-.642.39155-.68266.40351.48537-.32983.72911-.82094.56668-1.09316l-.08917.05484.107-.20719ZM78.498,2.82171a.31633.31633,0,0,0,.00046.13791C78.48725,2.91032,78.4502,2.90176,78.498,2.82171ZM39.4756,31.72541l1.7266,1.52641.39322-.27457c-.14244.0261-.27466.04645-.39322.05891-.92448-1.33617-1.12356-1.94447,0-1.11776l.27242-.21559.104-.13792a1.63336,1.63336,0,0,0-.37638.21215,4.51271,4.51271,0,0,0-.54775-.3966,7.07559,7.07559,0,0,1-.8921.075,4.70182,4.70182,0,0,0-.77977.02095c.05144.26036.32247.2305.53251.4613ZM39.464,30.39692c-.27685-.303-.27762-.12893-.39678-.06483l.368.22687A.11921.11921,0,0,1,39.464,30.39692Zm-.445.055a.24376.24376,0,0,1,.07467.09005ZM45.78658,28.784l-.03126.03394.26947-.17276A.71546.71546,0,0,0,45.78658,28.784Zm-.89593.31158.05667.24387.25176-.16285A.36315.36315,0,0,0,44.89065,29.09559ZM42.3851,30.09817c-.0034.34791-.40147.673-.36153,1.04072-.01037.11031.0893.07188.20288.01648l.38906-.26943a.32687.32687,0,0,1,.02648-.18465c-.14546.06314-.253.048-.26928-.18418.47341.16555.15625-.5013.50178-.63363C42.84954,29.6219,42.44144,29.94174,42.3851,30.09817ZM12.60123,9.814a1.686,1.686,0,0,0,.01034-.22727l.37292.09315c.453.43887.572,1.104,1.25606,1.14365a1.25846,1.25846,0,0,1,.13564.70626,2.35641,2.35641,0,0,1-.24315-.259C12.53453,10.7488,13.85043,10.29036,12.60123,9.814Zm5.35042,4.863a.145.145,0,0,0-.11278.002,8.38406,8.38406,0,0,1,3.056,1.46167c.025-.27068-.40118-.8263-.597-1.09863l.38518-.03078.01461.27118.5363.11659c-.00157-.22342-.33947-.44-.46771-.71026-.04878.02483-.91108-.26008-1.19831-.28026l.42886.56205a5.25742,5.25742,0,0,0-1.17848-.84813c-.08591.099.27955.63848.51539.46224-.06084.19838-.626-.23865-.397.2029a3.49479,3.49479,0,0,1-1.36882-1.143l.14724-.29835c-.26439-.36631-.47236.13026-.76333-.33482.539.33858.1349-.34784.54768-.05794-.05145-.196.20908-.27425-.20457-.56471-.59649.08262-.25388-.54024-.80121-.48342-.1267-.26942.38482-.02965.0081-.39591-.61206-.18867-.68453-.039-.90666.18611.3881.41329.74749.06388,1.06221.40541l-1.04948-.13468a.624.624,0,0,0,.27465.29264.99445.99445,0,0,0-.50786-.11525l-.26412-.00308c.406.31917.76327.60668.74514.76208l-.14978.07652c.05847.2227.361.31907.53792.31533.3751.27081.87013.38671.82863.60451l-.22413.00229A12.27829,12.27829,0,0,1,17.95165,14.677ZM32.44981,26.39116c.07094-.65228.07412-1.275-1.2549-2.18469l.12355.04719c-.42427-.774-1.53132-.60384-2.07046-1.51609a2.41562,2.41562,0,0,0,1.18693.071l-.50187-.19052c.29886-.15263-.20172-.34278-.49008-.58527l.48429-.08139c.11462.22076.554.61008.591.53457-.12574-.04724.33051.83494.78165,1.05277.1105-.22431-.76691-.78092-.15658-.81344-.42439-.11728-.3142-.34119-.70286-.53456.42508.11807.28473-.20169.634-.156l-.60177-.36264c.03569-.07555.91332.48078.64692-.10788-.29945-.07035-.78978-.65581-.96226-.45576l.0362-.07452c-.37772-.36615-.41075.15346-.82537-.35951-.08743.10012-.047.24765.15127.36739.18968.07284.32456-.05207.66335.16465.01516.273-.36549-.31685-.36026.12933.00243.2218.92669.53064.45485.66022l-.37716-.36519c-.17277.20026-.462-.04366-.58434.131-.3117-.11914-.36685-.539-.76513-.55778-.21173.05172-.21992.44724-.56091.007-.09282-.56706-1.11985-1.26942-1.52134-1.51083l-.42478-.11695c-.0721.14915.62747.46017.292.46572l-.5402-.33953.101-.05007a1.64166,1.64166,0,0,0-.576-.265c.27276-.02876.587.31253.68415.03952-.202-.22572-.1753-.33395-.42416-.46078.05922.02141.11643.03176.13422-.00343-.40332-.46415-.64875-.11485-.82313-.137-.69843-.0899.27878.63744.04369.81337l-1.49075-.96772c.17416.02238.34889.04571.37313-.07846-.26482-.36695.12331-.17457-.36632-.53836-.19644.32336-.75-.28648-1.22333-.37953-.06441-.245-.0781-.29484.27208-.02821.11-.22364-.414-.51239-.56617-.659-.1334-.02678-.319-.12627-.45622-.16413.06436.20434-.08868.27864-.45388.1267l-.049.02672c.45272.4367,1.05642,1.24417,1.51943,1.28753l-.16172.02733c.44188.61119,1.51283.62106,1.49326,1.19009-.13633.1251.089.12251-.0828.32281l.54731.1646-.16089.02627.75246.50954-.04945.0245,1.18373.16929c.07142-.09015.071-.1353.23634-.11385a.652.652,0,0,1,.30823.17548l.00137-.00058-.00079.001c.155.1631.17055.38454.34562.60575l-.68307-.49516c-.174.11193-.24193.316.0004.67747-.138-.09787-.28728-.021-.13605.12508.04931-.026.51275.24071.449-.006.676.43554,1.38478,1.63639,2.57267,2.08995-.82682-.36.39211.63645-.42276.10422.34257.6624.6487.11493,1.1635.5771-.02242.1247-.28758-.24232-.54869-.16485.82886.80337,1.83809.79015,2.65619,1.54652l-.112.22136Zm1.9199,1.1082.56513.33308-.046-.04493.62713.23922c-.25294-.31736-.29364-.68826.2187-.44786-.09848.051-.047.24764-.2346.17631.20213.34259.7559.95262.815.5319-.77481-.1617.157-.47175-.44245-.61081.38389-.00536.552.26223.84125.35139-.35588-.02238-.225.40122.06569.74853.18845.07156.56527.43636.87772.55622.04811-.24788.3473-.17836-.02969-.54343a1.30448,1.30448,0,0,1,.64083.5107c-.12756-.05029-.3263-.16944-.36364-.09549.04185.295.24538.44165.30036.59639l.28267.17416a.23969.23969,0,0,1-.01594-.11025l.41146.0682c-.45059-.21619-.11439-.22071-.02841-.321-.17756.19579.24175.23146.34276.29887a3.31986,3.31986,0,0,0-.09408-.42572c.2479.01588.2883.479.39736.21439a3.68027,3.68027,0,0,0-.61406-.55685c-.2084-.15136-.42438-.278-.72485-.459l.0906.34414c-.71458-.36163-.15491-.59051-.85765-1.12371-.41068-.06919-1.05558-.80348-1.31289-.50226.16145-.02733-.21753-.61494-.56612-.659-.48567.08031-1.3132-.50135-1.173-.1831.21276.171.62485.23961.65348.56033l-.46427-.26566.15331.369C34.58722,27.0569,34.48261,27.21973,34.36971,27.49936Zm11.22944,4.70585.01938-.00843-.01872.013Z" style="fill: #1d1d1d"/>
        <path d="M5.90972,5.65c-.17544-.02242-.46355-.26522-.52428-.067C5.50926,5.40893,5.93649,5.97022,5.90972,5.65Z" style="fill: #1d1d1d"/>
        <path d="M5.68236,5.20892c-.05224.024-.08774.09968-.22565.00187l.40045.24276Z" style="fill: #1d1d1d"/>
        <path d="M6.20365,3.7698a1.07859,1.07859,0,0,1-.75036-.2868c.20739-.497.57579.26378,1.00809-.01411-.51477-.46221-.96077-.23393-1.4359-.54762C5.11447,3.26512,5.94484,4.06891,6.20365,3.7698Z" style="fill: #1d1d1d"/>
        <polygon points="6.849 3.44 6.474 3.297 6.485 3.344 6.86 3.487 6.849 3.44" style="fill: #1d1d1d"/>
        <path d="M10.639,12.10688c-.07255.14957.21438.17014.33969.21793A.58065.58065,0,0,0,10.639,12.10688Z" style="fill: #1d1d1d"/>
        <path d="M73.752,10.77625,75.9668,8.855C75.32718,9.40467,74.7257,9.89827,73.752,10.77625Z" style="fill: #1d1d1d"/>
        <path d="M18.95975,17.23294a16.07351,16.07351,0,0,1-1.83827-.79042c.63052.90491,1.41186.45064,1.90418,1.25814Z" style="fill: #1d1d1d"/>
        <path d="M17.94537,18.0856c.08509-.32153.69889.08949.74641-.15763-.464-.26634-.37352.07847-.737-.23744Z" style="fill: #1d1d1d"/>
        <polygon points="18.238 11.907 18.524 11.928 18.336 11.856 18.238 11.907" style="fill: #1d1d1d"/>
        <polygon points="20.94 20.071 20.829 20.072 21.081 20.39 20.94 20.071" style="fill: #1d1d1d"/>
        <path d="M20.71742,20.0742l.11183-.00227Z" style="fill: #1d1d1d"/>
        <polygon points="18.882 11.577 18.643 11.308 18.418 11.311 18.882 11.577" style="fill: #1d1d1d"/>
        <path d="M20.34319,14.79218l-.3102-.11735C20.09432,14.6984,20.35924,15.064,20.34319,14.79218Z" style="fill: #1d1d1d"/>
        <polygon points="22.761 21.651 23.137 21.795 23.125 21.747 22.749 21.604 22.761 21.651" style="fill: #1d1d1d"/>
        <path d="M22.81917,15.64933c-.02843-.32012.53816.33794.31021-.10269C22.79074,15.32921,22.84378,15.526,22.81917,15.64933Z" style="fill: #1d1d1d"/>
        <path d="M25.513,19.76441a.35422.35422,0,0,0,.14719.0707A1.44477,1.44477,0,0,0,25.513,19.76441Z" style="fill: #1d1d1d"/>
        <path d="M25.513,19.76441c-.13252-.10306-.2099-.27718-.34252-.29417A.48228.48228,0,0,0,25.513,19.76441Z" style="fill: #1d1d1d"/>
        <path d="M27.06536,20.90223l-.10993-.10665c.19407.00386.12536-.02792-.0416-.0395-.13225-.09278-.17077-.02842-.21714-.00013l-.13445.01129.15667.014C26.915,20.93637,27.04255,21.02086,27.06536,20.90223Z" style="fill: #1d1d1d"/>
        <path d="M30.27446,28.41793c-.39018-.41434-.479-.537-.34286-.66237-.38572-.37357-.5132-.07468-.81225-.21464C29.61776,27.884,29.66368,28.02611,30.27446,28.41793Z" style="fill: #1d1d1d"/>
        <path d="M29.11935,27.54092l-.17539-.11784A.74425.74425,0,0,0,29.11935,27.54092Z" style="fill: #1d1d1d"/>
        <polygon points="26.515 17.946 26.963 17.94 26.838 17.892 26.515 17.946" style="fill: #1d1d1d"/>
        <path d="M30.8768,29.00291c-.07518-.07316-.2121-.16938-.23847-.26925C30.5021,28.86,30.952,29.07566,30.8768,29.00291Z" style="fill: #1d1d1d"/>
        <path d="M31.362,24.84607c.02365-.12342-.30153-.29143-.39078-.41525C31.12254,24.57837,31.05115,24.94919,31.362,24.84607Z" style="fill: #1d1d1d"/>
        <path d="M32.6127,29.39879c-.07518-.07317-.12635-.26852.02128-.34531C32.45937,29.03119,32.09986,29.15952,32.6127,29.39879Z" style="fill: #1d1d1d"/>
        <polygon points="32.153 25.503 32.128 25.405 31.752 25.261 32.153 25.503" style="fill: #1d1d1d"/>
        <path d="M32.7245,22.53208c-.4754-.0938.21939.83632-.48229.5243.61909.77035.13114-.28876.66945.17452C32.62894,22.91781,32.63729,22.57549,32.7245,22.53208Z" style="fill: #1d1d1d"/>
        <path d="M32.91166,23.2309a1.112,1.112,0,0,0,.14375.13561Z" style="fill: #1d1d1d"/>
        <path d="M36.87382,28.05884a.66676.66676,0,0,0-.16-.03118A.64141.64141,0,0,0,36.87382,28.05884Z" style="fill: #1d1d1d"/>
        <path d="M34.81045,24.47946l-.713-.13988c.47564.09417,1.32814.7738,1.47435.4751a1.35884,1.35884,0,0,0-.85049-.45745Z" style="fill: #1d1d1d"/>
        <path d="M37.62542,34.14942l-.48557-.214.51509.44865C37.52533,34.22157,37.90588,34.21444,37.62542,34.14942Z" style="fill: #1d1d1d"/>
        <path d="M37.75529,34.47078l-.10035-.08672A.413.413,0,0,0,37.75529,34.47078Z" style="fill: #1d1d1d"/>
        <path d="M35.80848,27.43a1.33565,1.33565,0,0,0-.47564-.31422C35.35754,27.21309,35.73463,27.57887,35.80848,27.43Z" style="fill: #1d1d1d"/>
        <polygon points="40.615 35.874 39.956 35.433 40.672 35.959 40.615 35.874" style="fill: #1d1d1d"/>
        <polygon points="43.832 34.988 43.973 34.955 44.508 34.392 44.361 34.428 43.832 34.988" style="fill: #1d1d1d"/>
        <path d="M40.9023,28.68147c-.07176-.0999-.2328.14541-.2279.22757l.20813.14564c-.00015-.32441-.05645-.03434-.15887-.19607A1.34877,1.34877,0,0,0,40.9023,28.68147Z" style="fill: #1d1d1d"/>
        <path d="M57.23042,23.96148c-.00221.21854-.588.54867-.71533.44171.02739-.11035.27049-.3851.0282-.32767l-.15763.65439c-.71319.22324.08122-.76224.26312-1.09144-.59634.3949-.59368.74254-1.19347,1.20695a1.03871,1.03871,0,0,1,.52415-.11334c.20183.21758-.43649.54821-.821.87678.33269-.09619.25226.10349.1386.33914a.17621.17621,0,0,0-.04318.09122l-.03722.08171.0476-.03752a.17661.17661,0,0,0,.12019.06861c.28191-.32811.68941-.33231.90722-.49688-.50783-.21377.66548-.65845.84565-.98581l.28365-.28056.11633-.09186c.05611.02363.06334.10149-.05669.3153.09062-.19062.60758-.5506.467-.63664l1.129-.88689a.37933.37933,0,0,1,.14493-.01313c.02076-.05434.01207-.079-.00805-.09426l4.91832-3.86412c-.26679.15952-.54481.23689-.82856.39029.18108-.54506-.44713.27488-.52174-.04936a.96732.96732,0,0,1,.564-.44091c-.0385-.16306-.33187-.10594-.41926-.26853-.74039.333-.388.98276-1.06487,1.3686-.088-.16291.00215-.43529-.38116-.106l.07718-.10968c-.5127.65746-.75067.06065-.84489.76827l-.15125-.21623A4.56234,4.56234,0,0,1,59.53629,21.55l-.01221-.0548c-.70506.93038-.46043.43908-1.38251,1.31634l.27126-.60062c-.423.1678-.29545.49218-.56406.65763-.01353-.054-.18941-.16168.01515-.38118l-.92508,1.31347C56.7714,24.18284,57.11657,23.90808,57.23042,23.96148Z" style="fill: #1d1d1d"/>
        <path d="M55.45531,24.84542a1.06048,1.06048,0,0,0-.2293.16579C55.31422,24.95312,55.38672,24.89876,55.45531,24.84542Z" style="fill: #1d1d1d"/>
        <path d="M64.47725,18.8457l-.34549.27147A1.64121,1.64121,0,0,0,64.47725,18.8457Z" style="fill: #1d1d1d"/>
        <path d="M54.07,26.65184c.294-.05593-.04038.2731-.01491.38149l.75044-.58948c-.06585-.07776-.061-.22536-.13329-.287Z" style="fill: #1d1d1d"/>
        <path d="M55.14106,26.42526a.56239.56239,0,0,1,.07557-.30433l-.41108.32292C54.85494,26.502,54.94363,26.52066,55.14106,26.42526Z" style="fill: #1d1d1d"/>
        <polygon points="51.734 22.209 51.862 22.098 52.015 21.879 51.734 22.209" style="fill: #1d1d1d"/>
        <path d="M54.09372,20.93914c-.25386.00227-.48419.32967-.56135.439C53.87753,21.10341,53.76262,21.267,54.09372,20.93914Z" style="fill: #1d1d1d"/>
        <polygon points="52.65 19.971 52.933 19.641 52.883 19.642 52.65 19.971" style="fill: #1d1d1d"/>
        <path d="M66.404,16.03292l.15347-.14114A.91571.91571,0,0,0,66.404,16.03292Z" style="fill: #1d1d1d"/>
        <path d="M63.67787,18.47134c.98237-.38912-.3736.60229.11056.70576l.35866-.438.02536.10911.51113-.43943c-.216-.05268-.30452.00252-.39309-.16023.75321-.49543.35681-.00284,1.01871-.22565l.77258-.64288-.03053.09317a.19953.19953,0,0,0,.08437-.1375l2.6025-2.16787c.39705-.49278-.47075-.0505-.27716-.54157-.56292.439-1.51977.93664-1.34385,1.26158-.012-.05451-.03647-.1628-.17721-.10807l-.14166.49027.36944-.1662A2.8504,2.8504,0,0,1,65.619,17.36739c.53925-.54851.01632-.5977.97483-1.09519-.0944-.04371-.34772-.05269-.18989-.23928A22.1098,22.1098,0,0,0,63.67787,18.47134Z" style="fill: #1d1d1d"/>
        <path d="M73.4239,10.6697l.01247.032C73.44332,10.67411,73.441,10.65918,73.4239,10.6697Z" style="fill: #1d1d1d"/>
        <path d="M73.06655,10.89054l-.25956.65423.72889-.6032-.09951-.23983c-.02693.10152-.21082.40522-.37232.407Z" style="fill: #1d1d1d"/>
        <path d="M72.38366,12.1478c.32012-.38394.1181-.60059-.17474-.54312.27-.38335.38142.105.434-.33046-.1386-.16172-.49835.27608-.57455.385Z" style="fill: #1d1d1d"/>
        <polygon points="69.444 14.237 69.477 14.056 69.19 14.239 69.444 14.237" style="fill: #1d1d1d"/>
        <path d="M69.47724,14.05645l.28518-.18036a.57448.57448,0,0,0-.22793-.12848Z" style="fill: #1d1d1d"/>
        <path d="M70.51027,13.40225a4.297,4.297,0,0,0,.41615-.26453Z" style="fill: #1d1d1d"/>
        <path d="M70.16105,13.57876l.03258.02337.31664-.19988Z" style="fill: #1d1d1d"/>
        <path d="M69.76242,13.87609c.16989.12967.3536.26177.70163-.08174l-.27042-.19222Z" style="fill: #1d1d1d"/>
        <polygon points="55.283 18.318 55.514 17.99 55.463 17.99 55.232 18.318 55.283 18.318" style="fill: #1d1d1d"/>
        <path d="M57.14814,17.10679a1.44117,1.44117,0,0,0,.11361-.23232A.444.444,0,0,0,57.14814,17.10679Z" style="fill: #1d1d1d"/>
        <path d="M57.58227,14.9814c.48425-.11309-.32316.59975.39371.15868.177.10747.02056.5452-.34941.71106-.08717-.163.23121-.32777-.07393-.32572-.07714.3269-.24381.27467-.00343.43534-.24234.40528-.16121.58946-.28746.91371.34581-.422,1.40071-.88535,1.71753-1.57784.09121-.4891-.36352-.706-.65473-1.083C58.21145,14.15951,57.41722,14.71,57.58227,14.9814Z" style="fill: #1d1d1d"/>
        <path d="M56.72914,15.04238a.772.772,0,0,0-.29514.274C56.56124,15.42377,56.60023,15.15175,56.72914,15.04238Z" style="fill: #1d1d1d"/>
        <path d="M62.72478,14.92505c-.01-.07791.237-.37642.101-.41891l-.40036.41927A.29073.29073,0,0,1,62.72478,14.92505Z" style="fill: #1d1d1d"/>
        <path d="M62.24945,15.10893l.176-.18352A.67177.67177,0,0,0,62.24945,15.10893Z" style="fill: #1d1d1d"/>
        <path d="M62.77234,14.94172l-.04756-.01667C62.72731,14.94145,62.73753,14.95206,62.77234,14.94172Z" style="fill: #1d1d1d"/>
        <path d="M71.68163,12.64149c.074.10825.22774-.11016.30525-.21959A.92134.92134,0,0,0,71.68163,12.64149Z" style="fill: #1d1d1d"/>
        <path d="M78.96,6.32968l.24208-.05651A.37276.37276,0,0,0,78.96,6.32968Z" style="fill: #1d1d1d"/>
        <path d="M79.51337,1.37379a.13636.13636,0,0,1-.00488-.08076A.11552.11552,0,0,0,79.51337,1.37379Z" style="fill: #1d1d1d"/>
        <path d="M79.50849,1.293c.05494-.18056.5348-.33939.56824-.57524l.014.05332.19124-.27319C80.055.69266,79.54763,1.06167,79.50849,1.293Z" style="fill: #1d1d1d"/>
      </g>
    </g>
  </g>
</svg>
